<?xml version="1.0" encoding="UTF-8" standalone="no"?>
<!-- Created with Inkscape (http://www.inkscape.org/) -->

<svg
   xmlns:dc="http://purl.org/dc/elements/1.1/"
   xmlns:cc="http://creativecommons.org/ns#"
   xmlns:rdf="http://www.w3.org/1999/02/22-rdf-syntax-ns#"
   xmlns:svg="http://www.w3.org/2000/svg"
   xmlns="http://www.w3.org/2000/svg"
   xmlns:xlink="http://www.w3.org/1999/xlink"
   xmlns:sodipodi="http://sodipodi.sourceforge.net/DTD/sodipodi-0.dtd"
   xmlns:inkscape="http://www.inkscape.org/namespaces/inkscape"
   width="500"
   height="500"
   id="svg2"
   version="1.1"
   inkscape:version="0.48.5 r10040"
   sodipodi:docname="improve-source-view.svg">
  <defs
     id="defs4">
    <marker
       inkscape:stockid="Arrow1Lend"
       orient="auto"
       refY="0.0"
       refX="0.0"
       id="Arrow1Lend"
       style="overflow:visible;">
      <path
         id="path4606"
         d="M 0.0,0.0 L 5.0,-5.0 L -12.5,0.0 L 5.0,5.0 L 0.0,0.0 z "
         style="fill-rule:evenodd;stroke:#000000;stroke-width:1.0pt;"
         transform="scale(0.8) rotate(180) translate(12.5,0)" />
    </marker>
    <radialGradient
       r="298.9993"
       cy="228"
       cx="199"
       gradientTransform="matrix(0.60805083,0,0,0.60805085,235.53269,379.32345)"
       gradientUnits="userSpaceOnUse"
       id="radialGradient3105"
       xlink:href="#SVGID_1_"
       inkscape:collect="always" />
    <radialGradient
       id="SVGID_1_"
       cx="199"
       cy="228"
       r="298.9993"
       gradientUnits="userSpaceOnUse"
       gradientTransform="matrix(0.60805083,0,0,0.60805085,-2.1219864e-6,-1.8071192e-6)">
      <stop
         offset="0"
         style="stop-color:#FFFFFF"
         id="stop4" />
      <stop
         offset="0.4071"
         style="stop-color:#FDFDFD"
         id="stop6" />
      <stop
         offset="0.6247"
         style="stop-color:#F5F5F5"
         id="stop8" />
      <stop
         offset="0.7975"
         style="stop-color:#E7E9E9"
         id="stop10" />
      <stop
         offset="0.9458"
         style="stop-color:#D4D7D7"
         id="stop12" />
      <stop
         offset="1"
         style="stop-color:#CBCECE"
         id="stop14" />
    </radialGradient>
    <radialGradient
       r="298.9993"
       cy="228"
       cx="199"
       gradientTransform="matrix(1.2520231,0,0,1.2545485,-1.8204579,138.07757)"
       gradientUnits="userSpaceOnUse"
       id="radialGradient3354"
       xlink:href="#SVGID_1_"
       inkscape:collect="always" />
    <marker
       inkscape:stockid="Arrow1Lend"
       orient="auto"
       refY="0"
       refX="0"
       id="Arrow1Lend-7"
       style="overflow:visible">
      <path
         inkscape:connector-curvature="0"
         id="path4606-9"
         d="M 0,0 5,-5 -12.5,0 5,5 0,0 z"
         style="fill-rule:evenodd;stroke:#000000;stroke-width:1pt"
         transform="matrix(-0.8,0,0,-0.8,-10,0)" />
    </marker>
    <marker
       inkscape:stockid="Arrow1Lend"
       orient="auto"
       refY="0"
       refX="0"
       id="Arrow1Lend-3"
       style="overflow:visible">
      <path
         inkscape:connector-curvature="0"
         id="path4606-1"
         d="M 0,0 5,-5 -12.5,0 5,5 0,0 z"
         style="fill-rule:evenodd;stroke:#000000;stroke-width:1pt"
         transform="matrix(-0.8,0,0,-0.8,-10,0)" />
    </marker>
    <marker
       inkscape:stockid="Arrow1Lend"
       orient="auto"
       refY="0"
       refX="0"
       id="Arrow1Lend-6"
       style="overflow:visible">
      <path
         inkscape:connector-curvature="0"
         id="path4606-4"
         d="M 0,0 5,-5 -12.5,0 5,5 0,0 z"
         style="fill-rule:evenodd;stroke:#000000;stroke-width:1pt"
         transform="matrix(-0.8,0,0,-0.8,-10,0)" />
    </marker>
    <marker
       inkscape:stockid="Arrow1Lend"
       orient="auto"
       refY="0"
       refX="0"
       id="Arrow1Lend-8"
       style="overflow:visible">
      <path
         inkscape:connector-curvature="0"
         id="path4606-99"
         d="M 0,0 5,-5 -12.5,0 5,5 0,0 z"
         style="fill-rule:evenodd;stroke:#000000;stroke-width:1pt"
         transform="matrix(-0.8,0,0,-0.8,-10,0)" />
    </marker>
    <rect
       fill="#B22234"
       height="50"
       width="1235"
       id="stripe" />
    <g
       id="u">
      <use
         id="use5600"
         y="-0.216"
         xlink:href="#x4" />
      <use
         id="use5602"
         xlink:href="#x4" />
      <use
         id="use5604"
         y="0.216"
         xlink:href="#s6" />
    </g>
    <g
       id="x4">
      <use
         id="use5591"
         xlink:href="#s6" />
      <use
         id="use5593"
         y="0.054"
         xlink:href="#s5" />
      <use
         id="use5595"
         y="0.108"
         xlink:href="#s6" />
      <use
         id="use5597"
         y="0.162"
         xlink:href="#s5" />
    </g>
    <g
       id="s6">
      <use
         id="use5586"
         x="-0.063"
         xlink:href="#s5" />
      <use
         id="use5588"
         x="0.315"
         xlink:href="#star" />
    </g>
    <g
       id="s5">
      <use
         id="use5575"
         x="-0.252"
         xlink:href="#star" />
      <use
         id="use5577"
         x="-0.126"
         xlink:href="#star" />
      <use
         id="use5579"
         xlink:href="#star" />
      <use
         id="use5581"
         x="0.126"
         xlink:href="#star" />
      <use
         id="use5583"
         x="0.252"
         xlink:href="#star" />
    </g>
    <g
       id="star">
      <use
         id="use5564"
         transform="rotate(-144)"
         xlink:href="#pt" />
      <use
         id="use5566"
         transform="rotate(-72)"
         xlink:href="#pt" />
      <use
         id="use5568"
         xlink:href="#pt" />
      <use
         id="use5570"
         transform="rotate(72)"
         xlink:href="#pt" />
      <use
         id="use5572"
         transform="rotate(144)"
         xlink:href="#pt" />
    </g>
    <polygon
       fill="#FFF"
       transform="scale(0.0616)"
       points="-0.1624598481164531,0 0,-0.5 0.1624598481164531,0"
       id="pt" />
  </defs>
  <sodipodi:namedview
     id="base"
     pagecolor="#ffffff"
     bordercolor="#666666"
     borderopacity="1.0"
     inkscape:pageopacity="0.0"
     inkscape:pageshadow="2"
     inkscape:zoom="0.98994949"
     inkscape:cx="214.62966"
     inkscape:cy="262.93439"
     inkscape:document-units="px"
     inkscape:current-layer="layer1"
     showgrid="false"
     fit-margin-top="0"
     fit-margin-left="0"
     fit-margin-right="0"
     fit-margin-bottom="0"
     inkscape:window-width="1920"
     inkscape:window-height="1025"
     inkscape:window-x="-2"
     inkscape:window-y="-3"
     inkscape:window-maximized="1" />
  <metadata
     id="metadata7">
    <rdf:RDF>
      <cc:Work
         rdf:about="">
        <dc:format>image/svg+xml</dc:format>
        <dc:type
           rdf:resource="http://purl.org/dc/dcmitype/StillImage" />
        <dc:title></dc:title>
      </cc:Work>
    </rdf:RDF>
  </metadata>
  <g
     inkscape:label="Calque 1"
     inkscape:groupmode="layer"
     id="layer1"
     transform="translate(1.4285715,-139.50504)">
    <rect
       width="500.80923"
       height="501.8194"
       id="rect16"
       x="-1.8204361"
       y="138.07751"
       style="fill:url(#radialGradient3354)" />
    <g
       id="g5657"
       transform="matrix(0.27578079,0,0,0.39313386,-1.6231637,383.88359)">
      <rect
         id="rect5607"
         height="650"
         width="1235"
         x="0"
         y="0"
         style="fill:#ffffff" />
      <use
         id="use5609"
         xlink:href="#stripe"
         x="0"
         y="0"
         width="1"
         height="1" />
      <use
         id="use5611"
         y="100"
         xlink:href="#stripe"
         x="0"
         width="1"
         height="1" />
      <use
         id="use5613"
         y="200"
         xlink:href="#stripe"
         x="0"
         width="1"
         height="1" />
      <use
         id="use5615"
         y="300"
         xlink:href="#stripe"
         x="0"
         width="1"
         height="1" />
      <use
         id="use5617"
         y="400"
         xlink:href="#stripe"
         x="0"
         width="1"
         height="1" />
      <use
         id="use5619"
         y="500"
         xlink:href="#stripe"
         x="0"
         width="1"
         height="1" />
      <use
         id="use5621"
         y="600"
         xlink:href="#stripe"
         x="0"
         width="1"
         height="1" />
      <rect
         id="rect5623"
         height="350"
         width="494"
         x="0"
         y="0"
         style="fill:#3c3b6e" />
      <use
         id="use5625"
         transform="matrix(650,0,0,650,247,175)"
         xlink:href="#u"
         x="0"
         y="0"
         width="1"
         height="1" />
    </g>
    <g
       id="g5693"
       transform="matrix(0.94428246,0,0,1.3633795,-146.74893,-66.949043)">
      <path
         style="fill:#fdfdfd"
         d="m 419.47363,424.67642 0,-94.01263 133.19279,0 133.1928,0 0,94.01263 0,94.01264 -133.1928,0 -133.19279,0 0,-94.01264 z"
         id="path5709"
         inkscape:connector-curvature="0" />
      <path
         style="fill:#f59ea5"
         d="m 419.47363,424.67642 0,-94.01263 44.48431,0 44.48431,0 0,94.01263 0,94.01264 -44.48431,0 -44.48431,0 0,-94.01264 z m 177.41697,0 0,-94.01263 44.48431,0 44.48431,0 0,94.01263 0,94.01264 -44.48431,0 -44.48431,0 0,-94.01264 z"
         id="path5707"
         inkscape:connector-curvature="0" />
      <path
         style="fill:#8b9bce"
         d="m 419.47363,424.67642 0,-94.01263 44.48431,0 44.48431,0 0,94.01263 0,94.01264 -44.48431,0 -44.48431,0 0,-94.01264 z m 177.67711,0 0,-94.01263 44.35424,0 44.35424,0 0,94.01263 0,94.01264 -44.35424,0 -44.35424,0 0,-94.01264 z"
         id="path5705"
         inkscape:connector-curvature="0" />
      <path
         style="fill:#f0616c"
         d="m 419.47363,424.67642 0,-94.01263 44.35424,0 44.35424,0 0,94.01263 0,94.01264 -44.35424,0 -44.35424,0 0,-94.01264 z m 177.67711,0 0,-94.01263 44.35424,0 44.35424,0 0,94.01263 0,94.01264 -44.35424,0 -44.35424,0 0,-94.01264 z"
         id="path5703"
         inkscape:connector-curvature="0" />
      <path
         style="fill:#ed3746"
         d="m 419.47363,424.67642 0,-94.01263 44.35424,0 44.35424,0 0,94.01263 0,94.01264 -44.35424,0 -44.35424,0 0,-94.01264 z m 177.80718,0 0,-94.01263 44.2892,0 44.28921,0 0,94.01263 0,94.01264 -44.28921,0 -44.2892,0 0,-94.01264 z"
         id="path5701"
         inkscape:connector-curvature="0" />
      <path
         style="fill:#435cb0"
         d="m 419.47363,424.67642 0,-94.01263 44.35424,0 44.35424,0 0,94.01263 0,94.01264 -44.35424,0 -44.35424,0 0,-94.01264 z m 177.67711,93.73735 c 0,-0.15141 0.11706,-0.2753 0.26014,-0.2753 0.17292,0 0.26014,-31.33754 0.26014,-93.46205 0,-62.1245 -0.0872,-93.46204 -0.26014,-93.46204 -0.14308,0 -0.26014,-0.12389 -0.26014,-0.2753 0,-0.18245 14.95817,-0.27529 44.35424,-0.27529 l 44.35424,0 0,94.01263 0,94.01264 -44.35424,0 c -29.39607,0 -44.35424,-0.0928 -44.35424,-0.27529 z"
         id="path5699"
         inkscape:connector-curvature="0" />
      <path
         style="fill:#ec2838"
         d="m 419.47363,424.67642 0,-94.01263 44.28921,0 44.2892,0 0,94.01263 0,94.01264 -44.2892,0 -44.28921,0 0,-94.01264 z m 177.67711,93.73735 c 0,-0.15141 0.11706,-0.2753 0.26014,-0.2753 0.17292,0 0.26014,-31.33754 0.26014,-93.46205 0,-62.1245 -0.0872,-93.46204 -0.26014,-93.46204 -0.14308,0 -0.26014,-0.12389 -0.26014,-0.2753 0,-0.18245 14.95817,-0.27529 44.35424,-0.27529 l 44.35424,0 0,94.01263 0,94.01264 -44.35424,0 c -29.39607,0 -44.35424,-0.0928 -44.35424,-0.27529 z"
         id="path5697"
         inkscape:connector-curvature="0" />
      <path
         style="fill:#002294"
         d="m 419.47363,424.67642 0,-94.01263 44.28921,0 44.2892,0 0,94.01263 0,94.01264 -44.2892,0 -44.28921,0 0,-94.01264 z"
         id="path5695"
         inkscape:connector-curvature="0" />
    </g>
    <g
       id="g5733"
       transform="matrix(0.31470206,0,0,0.61369348,170.58646,-35.784679)">
      <path
         style="fill:#fcfbfb"
         d="m -552.95148,482.9314 0,-200 400,0 400,0 0,200 0,200 -400,0 -400,0 0,-200 z"
         id="path5749"
         inkscape:connector-curvature="0" />
      <path
         style="fill:#eba4ad"
         d="m -551.95148,681.86817 c 0.825,-0.56793 60.78682,-30.71104 133.2485,-66.98469 l 131.74849,-65.95208 29.58484,0 c 23.19225,0 29.50743,0.2701 29.22662,1.25 -0.405,1.41326 -253.73792,128.73686 -260.99635,131.17519 -3.85378,1.29461 -9.99234,1.57209 -34.5,1.5595 -20.80828,-0.0107 -29.35907,-0.32718 -28.3121,-1.04792 z m 90.28404,-0.36367 c 1.91347,-1.91347 239.29974,-120.5731 241.21429,-120.5731 1.31915,0 1.50167,7.41435 1.50167,61 l 0,61 -122.07143,0 c -105.72853,0 -121.88039,-0.19103 -120.64453,-1.4269 z m 268.48111,1.1769 c -0.12916,-0.1375 -0.46666,-35.8 -0.75,-79.25 l -0.51515,-79 -179,-0.50685 c -98.45,-0.27876 -179.1125,-0.61626 -179.25,-0.75 -0.1375,-0.13373 -0.25,-18.24315 -0.25,-40.24315 0,-22 0.1125,-40.10942 0.25,-40.24315 0.1375,-0.13374 80.8,-0.47124 179.25,-0.75 l 179,-0.50685 0.51515,-79 c 0.28334,-43.45 0.62084,-79.1125 0.75,-79.25 0.12917,-0.1375 18.23485,-0.25 40.23485,-0.25 22,0 40.10568,0.1125 40.23485,0.25 0.12916,0.1375 0.46666,35.8 0.75,79.25 l 0.51515,79 179,0.50685 c 98.45,0.27876 179.1125,0.61626 179.25,0.75 0.1375,0.13373 0.25,18.24315 0.25,40.24315 0,22 -0.1125,40.10942 -0.25,40.24315 -0.1375,0.13374 -80.8,0.47124 -179.25,0.75 l -179,0.50685 -0.51515,79 c -0.28334,43.45 -0.62084,79.1125 -0.75,79.25 -0.12917,0.1375 -18.23485,0.25 -40.23485,0.25 -22,0 -40.10568,-0.1125 -40.23485,-0.25 z m 106.23485,-60.75 c 0,-53.58565 0.18252,-61 1.50167,-61 1.91455,0 239.30082,118.65963 241.21429,120.5731 1.23586,1.23587 -14.916,1.4269 -120.64453,1.4269 l -122.07143,0 0,-61 z m 200.53102,-4.7408 c -72.34206,-36.15743 -131.53102,-66.30743 -131.53102,-67 0,-0.98381 6.45204,-1.2592 29.50196,-1.2592 l 29.50196,0 101.24804,50.6037 c 55.68642,27.83203 102.03554,51.30177 102.99804,52.15498 1.51841,1.346 1.75,3.51584 1.75,16.39631 0,8.91323 -0.38719,14.84501 -0.96898,14.84501 -0.53295,0 -60.15795,-29.58336 -132.5,-65.7408 z m -666.53102,-23.76466 0,-44.50546 87.75,0.25546 c 57.66303,0.16787 87.75,0.59833 87.75,1.25546 0,1.19442 -171.22376,87.36965 -173.75,87.44665 -1.64125,0.05 -1.75,-2.7123 -1.75,-44.45211 z m 710.5,1.20211 c -47.3,-23.75816 -86,-43.64665 -86,-44.19665 0,-0.65713 30.08697,-1.08759 87.75,-1.25546 l 87.75,-0.25546 0,44.50546 c 0,41.73981 -0.10875,44.50214 -1.75,44.45211 -0.9625,-0.0293 -40.45,-19.49184 -87.75,-43.25 z m -710.5,-222.19119 c 0,-41.73981 0.10875,-44.50215 1.75,-44.45211 2.66048,0.0811 173.67188,86.29998 173.44663,87.44665 -0.12872,0.65522 -30.36511,1.08808 -87.69654,1.25546 l -87.50009,0.25546 0,-44.50546 z m 104.5,-6.16428 c -55.55,-27.80172 -101.7875,-51.24666 -102.75,-52.09987 -1.51841,-1.34599 -1.75,-3.51582 -1.75,-16.3963 0,-8.16475 0.3375,-14.86643 0.75,-14.89261 1.94707,-0.12358 264.25,131.68522 264.25,132.78721 0,0.98684 -6.45677,1.24843 -29.75,1.20527 l -29.75,-0.0551 -101,-50.54858 z m 370.69155,49.40882 c 0.43315,-1.5115 254.20163,-128.94643 261.30845,-131.22128 4.21242,-1.34836 9.6467,-1.55543 34.5,-1.31459 l 29.5,0.28587 -133.24119,66.75 -133.24118,66.75 -29.59215,0 c -23.1981,0 -29.51475,-0.27009 -29.23393,-1.25 z m 149.37848,0.36331 c -0.30141,-0.48768 0.01,-1.33878 0.69098,-1.89133 2.37145,-1.92289 171.74466,-86.22198 173.23666,-86.22198 1.31393,0 1.50233,5.5805 1.50233,44.5 l 0,44.5 -87.44098,0 c -49.76616,0 -87.6771,-0.38204 -87.98899,-0.88669 z m -412.96457,-70.72896 c -65.39199,-32.74181 -119.53664,-60.17267 -120.32143,-60.95746 -1.23585,-1.23585 14.91742,-1.42689 120.65229,-1.42689 l 122.07917,0 -0.25774,60.7364 c -0.22531,53.091 -0.44657,60.76422 -1.75775,60.95746 -0.825,0.12158 -55.00254,-26.5677 -120.39454,-59.30951 z m 255.06121,58.94898 c -0.36667,-0.36666 -0.66667,-27.81666 -0.66667,-61 l 0,-60.33333 122.07143,0 c 105.72853,0 121.88039,0.19103 120.64453,1.4269 -1.48152,1.48152 -239.07346,120.5731 -240.54763,120.5731 -0.45925,0 -1.135,-0.3 -1.50166,-0.66667 z"
         id="path5747"
         inkscape:connector-curvature="0" />
      <path
         style="fill:#e27785"
         d="m -419.95148,616.4314 132.5,-66.38956 28.80902,-0.0552 c 19.9195,-0.0382 28.60833,0.26949 28.15864,0.99711 -0.35771,0.57878 -59.57212,30.50378 -131.58758,66.5 l -130.93721,65.44765 -29.72143,-0.0552 -29.72144,-0.0552 132.5,-66.38956 z m 77,6 c 66.275,-33.21429 121.0625,-60.41446 121.75,-60.44481 0.98683,-0.0436 1.25,12.68204 1.25,60.44481 l 0,60.5 -121.75,-0.0552 -121.75,-0.0552 120.5,-60.38963 z m 149.75599,-19.25 -0.25599,-79.75 -179.75,-0.25272 -179.75,-0.25273 0,-39.99455 0,-39.99455 179.75,-0.25273 179.75,-0.25272 0.25599,-79.75 0.25598,-79.75 39.98803,0 39.98803,0 0.25598,79.75 0.25599,79.75 179.75,0.25272 179.75,0.25273 0,39.99455 0,39.99455 -179.75,0.25273 -179.75,0.25272 -0.25599,79.75 -0.25598,79.75 -39.98803,0 -39.98803,0 -0.25598,-79.75 z m 107.24401,19.25 c 0,-47.76277 0.26317,-60.48838 1.25,-60.44481 0.6875,0.0303 55.475,27.23052 121.75,60.44481 l 120.5,60.38963 -121.75,0.0552 -121.75,0.0552 0,-60.5 z m 201.25,-5.304 c -72.1875,-36.13085 -131.25,-66.03075 -131.25,-66.44422 0,-0.41348 12.82587,-0.75178 28.50192,-0.75178 l 28.50193,0 102.99807,51.50096 102.99808,51.50096 0,14.99904 c 0,8.24947 -0.1125,14.97394 -0.25,14.94326 -0.1375,-0.0307 -59.3125,-29.61738 -131.5,-65.74822 z m -668.25,-23.19676 0,-43.99924 86.5,0 c 47.575,0 86.5,0.33871 86.5,0.75269 0,0.41399 -38.925,20.21364 -86.5,43.99924 l -86.5,43.24654 0,-43.99923 z m 713.25,0.69756 c -47.4375,-23.75527 -86.25,-43.53011 -86.25,-43.9441 0,-0.41398 38.925,-0.7527 86.5,-0.7527 l 86.5,0 0,44 c 0,24.2 -0.1125,43.97485 -0.25,43.9441 -0.1375,-0.0307 -39.0625,-19.49203 -86.5,-43.2473 z m -713.25,-222.6968 c 0,-24.2 0.22603,-44 0.5023,-44 1.62443,0 172.4977,86.18185 172.4977,87.00115 0,0.65744 -29.56636,0.99885 -86.5,0.99885 l -86.5,0 0,-44 z m 102.75,-7.56355 -102.75,-51.45751 0,-14.98896 0,-14.98897 131.5,65.74772 c 72.325,36.16125 131.5,66.08602 131.5,66.4995 0,0.41347 -12.9375,0.72791 -28.75,0.69875 l -28.75,-0.053 -102.75,-51.4575 z m 374.77572,50.52194 c 0.35406,-0.57289 59.55494,-30.49789 131.5575,-66.5 l 130.91375,-65.45839 29.75151,0.0552 29.75152,0.0552 -132.5,66.38956 -132.5,66.38956 -28.80902,0.0552 c -19.73182,0.0378 -28.60618,-0.27297 -28.16526,-0.98639 z m 149.47428,0.0428 c 0,-0.8193 170.87327,-87.00115 172.4977,-87.00115 0.27627,0 0.5023,19.8 0.5023,44 l 0,44 -86.5,0 c -56.93364,0 -86.5,-0.34141 -86.5,-0.99885 z m -416.28143,-71.55819 -120.78144,-60.44296 121.53144,0 121.53143,0 0,60.5 c 0,33.275 -0.3375,60.47433 -0.75,60.44296 -0.4125,-0.0314 -55.10164,-27.25637 -121.53143,-60.5 z m 256.28143,0.057 0,-60.5 121.5314,0 121.53139,0 -121.03806,60.5 c -66.57093,33.275 -121.26006,60.5 -121.5314,60.5 -0.27133,0 -0.49333,-27.225 -0.49333,-60.5 z"
         id="path5745"
         inkscape:connector-curvature="0" />
      <path
         style="fill:#dc5e6d"
         d="m -418.96648,616.4314 133.04128,-66.5 26.98686,0 c 17.31093,0 26.98686,0.35827 26.98686,0.99924 0,0.54959 -58.94932,30.47459 -130.99848,66.5 l -130.99849,65.50076 -29.02966,0 -29.02965,0 133.04128,-66.5 z m 76.015,6 c 66.275,-33.21429 121.0625,-60.41446 121.75,-60.44481 0.98683,-0.0436 1.25,12.68204 1.25,60.44481 l 0,60.5 -121.75,-0.0552 -121.75,-0.0552 120.5,-60.38963 z m 150,-19.5 0,-80 -180,0 -180,0 0,-40 0,-40 180,0 180,0 0,-80 0,-80 40,0 40,0 0,80 0,80 180,0 180,0 0,40 0,40 -180,0 -180,0 0,80 0,80 -40,0 -40,0 0,-80 z m 107,19.5 c 0,-47.76277 0.26317,-60.48838 1.25,-60.44481 0.6875,0.0303 55.475,27.23052 121.75,60.44481 l 120.5,60.38963 -121.75,0.0552 -121.75,0.0552 0,-60.5 z m 202.7897,-5 c -71.34067,-35.75 -130.26817,-65.5625 -130.95,-66.25 -0.99151,-0.99975 4.30234,-1.25 26.44303,-1.25 l 27.68274,0 103.26726,51.60662 c 56.797,28.38365 103.39216,51.72103 103.5448,51.86087 0.15264,0.13983 0.15264,6.72935 0,14.64337 l -0.27753,14.38914 -129.7103,-65 z m -669.7897,-23.50076 0,-43.99924 86.5,0 c 47.575,0 86.5,0.33871 86.5,0.75269 0,0.41399 -38.925,20.21364 -86.5,43.99924 l -86.5,43.24654 0,-43.99923 z m 713.25,0.69756 c -47.4375,-23.75527 -86.25,-43.53011 -86.25,-43.9441 0,-0.41398 38.925,-0.7527 86.5,-0.7527 l 86.5,0 0,44 c 0,24.2 -0.1125,43.97485 -0.25,43.9441 -0.1375,-0.0307 -39.0625,-19.49203 -86.5,-43.2473 z m -713.25,-222.6968 c 0,-24.2 0.22603,-44 0.5023,-44 1.62443,0 172.4977,86.18185 172.4977,87.00115 0,0.65744 -29.56636,0.99885 -86.5,0.99885 l -86.5,0 0,-44 z m 103.52041,-7.74299 -103.52041,-51.74298 0,-14.5215 0,-14.5215 130.92439,65.48232 c 72.00841,36.01528 130.70685,65.8343 130.44098,66.26449 -0.26587,0.43019 -12.59766,0.78216 -27.40398,0.78216 l -26.92057,0 -103.52041,-51.74299 z m 375.47959,50.74375 c 0,-0.54959 58.94932,-30.47459 130.99848,-66.5 l 130.99849,-65.50076 29.02966,0 29.02965,0 -133.04128,66.5 -133.04128,66.5 -26.98686,0 c -17.31093,0 -26.98686,-0.35827 -26.98686,-0.99924 z m 148,3.9e-4 c 0,-0.8193 170.87327,-87.00115 172.4977,-87.00115 0.27627,0 0.5023,19.8 0.5023,44 l 0,44 -86.5,0 c -56.93364,0 -86.5,-0.34141 -86.5,-0.99885 z m -416.28143,-71.55819 -120.78144,-60.44296 121.53144,0 121.53143,0 0,60.5 c 0,33.275 -0.3375,60.47433 -0.75,60.44296 -0.4125,-0.0314 -55.10164,-27.25637 -121.53143,-60.5 z m 256.28143,0.057 0,-60.5 121.5314,0 121.53139,0 -121.03806,60.5 c -66.57093,33.275 -121.26006,60.5 -121.5314,60.5 -0.27133,0 -0.49333,-27.225 -0.49333,-60.5 z"
         id="path5743"
         inkscape:connector-curvature="0" />
      <path
         style="fill:#d32f43"
         d="m -418.9666,616.9314 132.04159,-66 27.23677,0.0552 27.23676,0.0552 -128.89441,64.51777 c -70.89192,35.48479 -129.53656,65.15995 -130.32143,65.94481 -1.17032,1.17032 -6.63595,1.42702 -30.38394,1.42702 l -28.95692,0 132.04158,-66 z m 76.01512,5.5 c 66.275,-33.21429 121.0625,-60.41446 121.75,-60.44481 0.98683,-0.0436 1.25,12.68204 1.25,60.44481 l 0,60.5 -121.75,-0.0552 -121.75,-0.0552 120.5,-60.38963 z m 150.5,-19.7499 0,-80.2501 -180.25002,0 -180.25002,0 0,-39.5 0,-39.5 180.25002,0 180.25002,0 0,-80.2501 0,-80.25009 39.5,0 39.5,0 0,80.25009 0,80.2501 180.25002,0 180.25002,0 0,39.5 0,39.5 -180.25002,0 -180.25002,0 0,80.2501 0,80.25009 -39.5,0 -39.5,0 0,-80.25009 z m 106.5,19.7499 c 0,-47.76277 0.26317,-60.48838 1.25,-60.44481 0.6875,0.0303 55.475,27.23052 121.75,60.44481 l 120.5,60.38963 -121.75,0.0552 -121.75,0.0552 0,-60.5 z m 331.66528,59.70841 c -0.4591,-0.71038 -58.9591,-30.41038 -130,-66 l -129.16528,-64.70841 27,-0.30893 27,-0.30892 103,51.30892 c 56.65,28.21991 103.12489,51.35882 103.27753,51.41979 0.15264,0.061 0.15264,6.81098 0,15 -0.15719,8.43328 -0.63946,14.32911 -1.11225,13.59755 z m -798.66528,-88.20917 0,-43.99924 86.5,0 c 47.575,0 86.5,0.33871 86.5,0.75269 0,0.41399 -38.925,20.21364 -86.5,43.99924 l -86.5,43.24654 0,-43.99923 z m 713.25,0.69756 c -47.4375,-23.75527 -86.25,-43.53011 -86.25,-43.9441 0,-0.41398 38.925,-0.7527 86.5,-0.7527 l 86.5,0 0,44 c 0,24.2 -0.1125,43.97485 -0.25,43.9441 -0.1375,-0.0307 -39.0625,-19.49203 -86.5,-43.2473 z m -713.25,-222.6968 c 0,-24.2 0.22603,-44 0.5023,-44 1.62443,0 172.4977,86.18185 172.4977,87.00115 0,0.65744 -29.56636,0.99885 -86.5,0.99885 l -86.5,0 0,-44 z m 627,43.00115 c 0,-0.8193 170.87327,-87.00115 172.4977,-87.00115 0.27627,0 0.5023,19.8 0.5023,44 l 0,44 -86.5,0 c -56.93364,0 -86.5,-0.34141 -86.5,-0.99885 z m -522,-51.00115 c -55.825,-27.98937 -102.2875,-50.91457 -103.25,-50.94488 -1.58415,-0.0499 -1.75,-1.43723 -1.75,-14.63845 0,-8.02084 0.3375,-14.42688 0.75,-14.23566 8.89488,4.12337 259.25,129.97186 259.25,130.31976 0,0.27458 -12.0375,0.47443 -26.75,0.44411 l -26.75,-0.0551 -101.5,-50.88977 z m 375,50.49745 c 0,-0.2764 57.70405,-29.34876 128.23121,-64.60524 70.52717,-35.25649 129.1273,-64.73034 130.22251,-65.49746 1.59137,-1.11464 7.77647,-1.39475 30.79714,-1.39475 l 28.80584,0 -132.04158,66 -132.04159,66 -26.98677,0 c -14.84272,0 -26.98676,-0.22615 -26.98676,-0.50255 z m -269.28143,-71.05449 -120.78144,-60.44296 121.53144,0 121.53143,0 0,60.5 c 0,33.275 -0.3375,60.47433 -0.75,60.44296 -0.4125,-0.0314 -55.10164,-27.25637 -121.53143,-60.5 z m 256.28143,0.057 0,-60.5 121.5314,0 121.53139,0 -121.03806,60.5 c -66.57093,33.275 -121.26006,60.5 -121.5314,60.5 -0.27133,0 -0.49333,-27.225 -0.49333,-60.5 z"
         id="path5741"
         inkscape:connector-curvature="0" />
      <path
         style="fill:#2f4b93"
         d="m -549.95148,681.9314 c 0.825,-0.53316 2.28819,-0.97627 3.25154,-0.98469 0.96334,-0.008 59.80015,-29.04031 130.74846,-64.51531 l 128.99692,-64.5 25.25154,0.0552 25.25154,0.0552 -128.5,64.38958 c -70.675,35.41427 -128.05,64.42132 -127.5,64.4601 0.55,0.0388 0.325,0.50674 -0.5,1.0399 -0.87902,0.56807 -13.29853,0.96937 -30,0.96937 -18.76466,0 -27.98761,-0.33113 -27,-0.96937 z m 207,-59.5 c 66.275,-33.21429 121.0625,-60.41446 121.75,-60.44481 0.98683,-0.0436 1.25,12.68204 1.25,60.44481 l 0,60.5 -121.75,-0.0552 -121.75,-0.0552 120.5,-60.38963 z m 150,59.5 c 0,-0.55 0.45,-1 1,-1 1.55963,0 1.36159,-157.23841 -0.2,-158.8 -1.56651,-1.56651 -358.8,-1.76564 -358.8,-0.2 0,0.55 -0.45,1 -1,1 -0.65,0 -1,-14 -1,-40 0,-26 0.35,-40 1,-40 0.55,0 1,0.45 1,1 0,1.56564 357.23349,1.36651 358.8,-0.2 1.56159,-1.56159 1.75963,-158.8 0.2,-158.8 -0.55,0 -1,-0.45 -1,-1 0,-0.65 14,-1 40,-1 26,0 40,0.35 40,1 0,0.55 -0.45,1 -1,1 -1.55963,0 -1.36159,157.23841 0.2,158.8 1.56651,1.56651 358.8,1.76564 358.8,0.2 0,-0.55 0.45,-1 1,-1 0.65,0 1,14 1,40 0,26 -0.35,40 -1,40 -0.55,0 -1,-0.45 -1,-1 0,-1.56564 -357.23349,-1.36651 -358.8,0.2 -1.56159,1.56159 -1.75963,158.8 -0.2,158.8 0.55,0 1,0.45 1,1 0,0.65 -14,1 -40,1 -26,0 -40,-0.35 -40,-1 z m 107,-59.5 c 0,-47.76277 0.26317,-60.48838 1.25,-60.44481 0.6875,0.0303 55.475,27.23052 121.75,60.44481 l 120.5,60.38963 -121.75,0.0552 -121.75,0.0552 0,-60.5 z m 331,58.50078 c 0,-0.54957 -57.4875,-29.77473 -127.75,-64.94479 l -127.75,-63.94557 25.75194,-0.0552 25.75194,-0.0552 101.74806,50.8534 c 55.96143,27.96936 102.31056,50.65686 102.99806,50.41666 0.96282,-0.33639 1.25,2.91368 1.25,14.14661 0,9.05555 -0.37905,14.58333 -1,14.58333 -0.55,0 -1,-0.44965 -1,-0.99922 z m -798,-87.00154 0,-43.99924 86.5,0 c 47.575,0 86.5,0.33871 86.5,0.75269 0,0.41399 -38.925,20.21364 -86.5,43.99924 l -86.5,43.24654 0,-43.99923 z m 713.25,0.69756 c -47.4375,-23.75527 -86.25,-43.53011 -86.25,-43.9441 0,-0.41398 38.925,-0.7527 86.5,-0.7527 l 86.5,0 0,44 c 0,24.2 -0.1125,43.97485 -0.25,43.9441 -0.1375,-0.0307 -39.0625,-19.49203 -86.5,-43.2473 z m -713.25,-222.6968 c 0,-24.2 0.22603,-44 0.5023,-44 1.62443,0 172.4977,86.18185 172.4977,87.00115 0,0.65744 -29.56636,0.99885 -86.5,0.99885 l -86.5,0 0,-44 z m 627,43.00115 c 0,-0.8193 170.87327,-87.00115 172.4977,-87.00115 0.27627,0 0.5023,19.8 0.5023,44 l 0,44 -86.5,0 c -56.93364,0 -86.5,-0.34141 -86.5,-0.99885 z m -522,-51.99184 c -61.12833,-30.64273 -102.19606,-50.6804 -103.25,-50.37749 -1.6096,0.4626 -1.75,-0.66579 -1.75,-14.06443 0,-9.04493 0.3791,-14.56739 1,-14.56739 0.55,0 1,0.44965 1,0.99922 0,0.54957 57.4875,29.77473 127.75,64.94479 l 127.75,63.94557 -25.5,9e-5 -25.5,10e-5 -101.5,-50.88046 z M 58.35563,349.37175 c 70.84391,-35.44219 128.21891,-64.45403 127.5,-64.47076 -0.83351,-0.0194 -0.69522,-0.38731 0.38168,-1.01543 1.03246,-0.60221 12.88593,-0.88187 30.5,-0.7196 16.40133,0.15111 27.51902,0.60394 25.81121,1.05131 -1.65,0.43223 -61.16296,29.79473 -132.25102,65.25 L -18.95353,413.9314 -44.7025,413.8718 -70.45148,413.8122 58.35563,349.37184 z m -400.58854,-5.99739 -120.78144,-60.44296 121.53144,0 121.53143,0 0,60.5 c 0,33.275 -0.3375,60.47433 -0.75,60.44296 -0.4125,-0.0314 -55.10164,-27.25637 -121.53143,-60.5 z m 256.28143,0.057 0,-60.5 121.5314,0 121.53139,0 -121.03806,60.5 c -66.57093,33.275 -121.26006,60.5 -121.5314,60.5 -0.27133,0 -0.49333,-27.225 -0.49333,-60.5 z"
         id="path5739"
         inkscape:connector-curvature="0" />
      <path
         style="fill:#ce132a"
         d="m -549.95148,681.9314 c 0.825,-0.53316 2.28819,-0.97627 3.25154,-0.98469 0.96334,-0.008 59.80015,-29.04031 130.74846,-64.51531 l 128.99692,-64.5 25.25154,0.0552 25.25154,0.0552 -128.5,64.38958 c -70.675,35.41427 -128.05,64.42132 -127.5,64.4601 0.55,0.0388 0.325,0.50674 -0.5,1.0399 -0.87902,0.56807 -13.29853,0.96937 -30,0.96937 -18.76466,0 -27.98761,-0.33113 -27,-0.96937 z m 89,0 c 0.825,-0.53316 2.28826,-0.97627 3.2517,-0.98469 0.96343,-0.008 54.45067,-26.36556 118.86054,-58.57143 64.40987,-32.20587 117.27355,-58.39142 117.47485,-58.19012 0.2013,0.20129 0.48905,27.00166 0.63945,59.55636 l 0.27346,59.19037 -121,-0.0156 c -78.48886,-0.01 -120.473,-0.35609 -119.5,-0.98489 z m 268,0 c 0,-0.55 0.45,-1 1,-1 1.55963,0 1.36159,-157.23841 -0.2,-158.8 -1.56651,-1.56651 -358.8,-1.76564 -358.8,-0.2 0,0.55 -0.45,1 -1,1 -0.65,0 -1,-14 -1,-40 0,-26 0.35,-40 1,-40 0.55,0 1,0.45 1,1 0,1.56564 357.23349,1.36651 358.8,-0.2 1.56159,-1.56159 1.75963,-158.8 0.2,-158.8 -0.55,0 -1,-0.45 -1,-1 0,-0.65 14,-1 40,-1 26,0 40,0.35 40,1 0,0.55 -0.45,1 -1,1 -1.55963,0 -1.36159,157.23841 0.2,158.8 1.56651,1.56651 358.8,1.76564 358.8,0.2 0,-0.55 0.45,-1 1,-1 0.65,0 1,14 1,40 0,26 -0.35,40 -1,40 -0.55,0 -1,-0.45 -1,-1 0,-1.56564 -357.23349,-1.36651 -358.8,0.2 -1.56159,1.56159 -1.75963,158.8 -0.2,158.8 0.55,0 1,0.45 1,1 0,0.65 -14,1 -40,1 -26,0 -40,-0.35 -40,-1 z m 107.77346,-58.18988 c 0.1504,-32.5547 0.43815,-59.35507 0.63945,-59.55636 0.2013,-0.2013 53.06498,25.98425 117.47485,58.19012 64.40987,32.20587 117.89711,58.56301 118.86055,58.57143 0.96343,0.008 2.42669,0.45153 3.25169,0.98469 0.973,0.6288 -41.01114,0.97484 -119.5,0.98493 l -121,0.0156 0.27346,-59.19037 z m 330.22654,57.19066 c 0,-0.54957 -57.4875,-29.77473 -127.75,-64.94479 l -127.75,-63.94557 25.75194,-0.0552 25.75194,-0.0552 101.74806,50.8534 c 55.96143,27.96936 102.31056,50.65686 102.99806,50.41666 0.96282,-0.33639 1.25,2.91368 1.25,14.14661 0,9.05555 -0.37905,14.58333 -1,14.58333 -0.55,0 -1,-0.44965 -1,-0.99922 z m -798,-86.91921 c 0,-39.9809 0.15408,-44.23642 1.58179,-43.68856 0.86998,0.33385 38.66998,0.60699 84,0.60699 45.33001,0 82.41821,0.3397 82.41821,0.75488 0,0.41518 -36.96474,19.20268 -82.14387,41.75 -45.17913,22.54732 -82.97913,41.86747 -84,42.93368 -1.80941,1.88977 -1.85613,0.8237 -1.85613,-42.35699 z m 798.73403,42.90563 c -0.42128,-0.83204 -38.10878,-20.17987 -83.75,-42.99518 -45.64122,-22.81531 -82.98403,-41.81695 -82.98403,-42.22587 0,-0.54944 166.26556,-1.71118 167.76063,-1.17219 0.14334,0.0517 0.14334,19.85168 0,44 -0.14335,24.14832 -0.60532,43.22528 -1.0266,42.39324 z M -552.95148,371.84983 c 0,-43.18069 0.0467,-44.24676 1.85613,-42.35699 1.02087,1.06621 38.82087,20.38637 84,42.93368 45.17913,22.54732 82.14387,41.33482 82.14387,41.75 0,0.41518 -37.0882,0.75488 -82.41821,0.75488 -45.33002,0 -83.13002,0.27314 -84,0.60699 -1.42771,0.54786 -1.58179,-3.70766 -1.58179,-43.68856 z m 715.25,43.33165 c -45.7875,-0.14386 -83.25,-0.59868 -83.25,-1.0107 0,-0.41203 36.96474,-19.19694 82.14387,-41.74426 45.17913,-22.54731 82.97913,-41.86747 84,-42.93368 1.80942,-1.88977 1.85613,-0.82647 1.85613,42.25 0,24.30371 -0.3375,44.07868 -0.75,43.94438 -0.4125,-0.13429 -38.2125,-0.36188 -84,-0.50574 z m -610.25,-52.24077 c -61.12833,-30.64273 -102.19606,-50.6804 -103.25,-50.37749 -1.6096,0.4626 -1.75,-0.66579 -1.75,-14.06443 0,-9.04493 0.3791,-14.56739 1,-14.56739 0.55,0 1,0.44965 1,0.99922 0,0.54957 57.4875,29.77473 127.75,64.94479 l 127.75,63.94557 -25.5,9e-5 -25.5,10e-5 -101.5,-50.88046 z M 58.35563,349.37175 c 70.84391,-35.44219 128.21891,-64.45403 127.5,-64.47076 -0.83351,-0.0194 -0.69522,-0.38731 0.38168,-1.01543 1.03246,-0.60221 12.88593,-0.88187 30.5,-0.7196 16.40133,0.15111 27.51902,0.60394 25.81121,1.05131 -1.65,0.43223 -61.16296,29.79473 -132.25102,65.25 L -18.95353,413.9314 -44.7025,413.8718 -70.45148,413.8122 58.35563,349.37184 z m -397.30711,-5.9808 c -64.075,-32.09206 -117.4,-58.38092 -118.5,-58.41969 -1.1,-0.0388 -2.675,-0.5067 -3.5,-1.03986 -0.973,-0.6288 41.01113,-0.97484 119.5,-0.98493 l 121,-0.0156 -0.27368,58.72393 c -0.15053,32.29816 -0.60053,59.03024 -1,59.40462 -0.39948,0.37438 -53.15132,-25.57645 -117.22632,-57.66851 z m 254.48156,57.30433 c -0.25647,-0.69514 -0.58224,-27.47649 -0.72394,-59.51413 l -0.25762,-58.25025 121,0.0156 c 78.48887,0.0101 120.473,0.35614 119.5,0.98494 -0.825,0.53316 -2.28826,0.97627 -3.25169,0.98469 -0.96344,0.008 -54.41266,26.34656 -118.77606,58.52919 -78.21657,39.10941 -117.17901,58.09475 -117.49069,57.25 z"
         id="path5737"
         inkscape:connector-curvature="0" />
      <path
         style="fill:#00237c"
         d="m -460.95148,681.9314 c 0.825,-0.53316 2.28826,-0.97627 3.2517,-0.98469 0.96343,-0.008 54.45067,-26.36556 118.86054,-58.57143 64.40987,-32.20587 117.27355,-58.39142 117.47485,-58.19012 0.2013,0.20129 0.48905,27.00166 0.63945,59.55636 l 0.27346,59.19037 -121,-0.0156 c -78.48886,-0.01 -120.473,-0.35609 -119.5,-0.98489 z m 375.77346,-58.18988 c 0.1504,-32.5547 0.43815,-59.35507 0.63945,-59.55636 0.2013,-0.2013 53.06498,25.98425 117.47485,58.19012 64.40987,32.20587 117.89711,58.56301 118.86055,58.57143 0.96343,0.008 2.42669,0.45153 3.25169,0.98469 0.973,0.6288 -41.01114,0.97484 -119.5,0.98493 l -121,0.0156 0.27346,-59.19037 z m -467.77346,-29.72855 c 0,-39.9809 0.15408,-44.23642 1.58179,-43.68856 0.86998,0.33385 38.66998,0.60699 84,0.60699 45.33001,0 82.41821,0.3397 82.41821,0.75488 0,0.41518 -36.96474,19.20268 -82.14387,41.75 -45.17913,22.54732 -82.97913,41.86747 -84,42.93368 -1.80941,1.88977 -1.85613,0.8237 -1.85613,-42.35699 z m 798.73403,42.90563 c -0.42128,-0.83204 -38.10878,-20.17987 -83.75,-42.99518 -45.64122,-22.81531 -82.98403,-41.81695 -82.98403,-42.22587 0,-0.54944 166.26556,-1.71118 167.76063,-1.17219 0.14334,0.0517 0.14334,19.85168 0,44 -0.14335,24.14832 -0.60532,43.22528 -1.0266,42.39324 z M -552.95148,371.84983 c 0,-43.18069 0.0467,-44.24676 1.85613,-42.35699 1.02087,1.06621 38.82087,20.38637 84,42.93368 45.17913,22.54732 82.14387,41.33482 82.14387,41.75 0,0.41518 -37.0882,0.75488 -82.41821,0.75488 -45.33002,0 -83.13002,0.27314 -84,0.60699 -1.42771,0.54786 -1.58179,-3.70766 -1.58179,-43.68856 z m 715.25,43.33165 c -45.7875,-0.14386 -83.25,-0.59868 -83.25,-1.0107 0,-0.41203 36.96474,-19.19694 82.14387,-41.74426 45.17913,-22.54731 82.97913,-41.86747 84,-42.93368 1.80942,-1.88977 1.85613,-0.82647 1.85613,42.25 0,24.30371 -0.3375,44.07868 -0.75,43.94438 -0.4125,-0.13429 -38.2125,-0.36188 -84,-0.50574 z m -501.25,-71.79053 c -64.075,-32.09206 -117.4,-58.38092 -118.5,-58.41969 -1.1,-0.0388 -2.675,-0.5067 -3.5,-1.03986 -0.973,-0.6288 41.01113,-0.97484 119.5,-0.98493 l 121,-0.0156 -0.27368,58.72393 c -0.15053,32.29816 -0.60053,59.03024 -1,59.40462 -0.39948,0.37438 -53.15132,-25.57645 -117.22632,-57.66851 z m 254.48156,57.30433 c -0.25647,-0.69514 -0.58224,-27.47649 -0.72394,-59.51413 l -0.25762,-58.25025 121,0.0156 c 78.48887,0.0101 120.473,0.35614 119.5,0.98494 -0.825,0.53316 -2.28826,0.97627 -3.25169,0.98469 -0.96344,0.008 -54.41266,26.34656 -118.77606,58.52919 -78.21657,39.10941 -117.17901,58.09475 -117.49069,57.25 z"
         id="path5735"
         inkscape:connector-curvature="0" />
    </g>
    <g
       id="g5773"
       transform="matrix(0.31813711,0,0,0.52564782,337.56209,38.248192)">
      <path
         style="fill:#fecd00"
         d="m -275.75336,425.04966 0,-235.81062 393.0177,0 393.0177,0 0,235.81062 0,235.81063 -393.0177,0 -393.0177,0 0,-235.81063 z"
         id="path5789"
         inkscape:connector-curvature="0" />
      <path
         style="fill:#fab700"
         d="m -274.98575,503.96281 c -0.60981,-0.69263 -0.76761,-33.13143 -0.76761,-157.79781 l 0,-156.92596 393.0177,0 393.0177,0 0,156.9439 c 0,135.19926 -0.12153,157.06545 -0.87729,157.82118 -1.32054,1.32055 -783.22773,1.27937 -784.3905,-0.0413 z"
         id="path5787"
         inkscape:connector-curvature="0" />
      <path
         style="fill:#f28600"
         d="m -274.98575,503.8606 c -0.61128,-0.24666 -0.76761,-32.31551 -0.76761,-157.46565 l 0,-157.15591 393.0177,0 393.0177,0 0,157.14138 c 0,142.7259 -0.0891,157.17558 -0.97137,157.51413 -1.16272,0.44617 -783.19045,0.41231 -784.29642,-0.034 z"
         id="path5785"
         inkscape:connector-curvature="0" />
      <path
         style="fill:#e74600"
         d="m -275.75336,346.44612 0,-157.20708 393.0177,0 393.0177,0 0,157.20708 0,157.20709 -393.0177,0 -393.0177,0 0,-157.20709 z"
         id="path5783"
         inkscape:connector-curvature="0" />
      <path
         style="fill:#db0000"
         d="m -275.75336,346.2926 0,-157.05356 393.0177,0 393.0177,0 0,157.05356 0,157.05356 -393.0177,0 -393.0177,0 0,-157.05356 z"
         id="path5781"
         inkscape:connector-curvature="0" />
      <path
         style="fill:#8f0000"
         d="m -274.98575,346.65351 c -0.60847,-0.24552 -0.76761,-16.59479 -0.76761,-78.8621 l 0,-78.55237 393.0177,0 393.0177,0 0,78.53784 c 0,71.04975 -0.0926,78.57338 -0.97137,78.91059 -1.16272,0.44616 -783.19045,0.41231 -784.29642,-0.034 z"
         id="path5779"
         inkscape:connector-curvature="0" />
      <path
         style="fill:#4c0000"
         d="m -275.75336,267.84258 0,-78.60354 393.0177,0 393.0177,0 0,78.60354 0,78.60354 -393.0177,0 -393.0177,0 0,-78.60354 z"
         id="path5777"
         inkscape:connector-curvature="0" />
      <path
         style="fill:#000000"
         d="m -275.75336,267.68906 0,-78.45002 393.0177,0 393.0177,0 0,78.45002 0,78.45002 -393.0177,0 -393.0177,0 0,-78.45002 z"
         id="path5775"
         inkscape:connector-curvature="0" />
    </g>
  </g>
</svg>
