<?xml version="1.0" encoding="UTF-8" standalone="no"?>
<!-- Created with Inkscape (http://www.inkscape.org/) -->

<svg
   xmlns:dc="http://purl.org/dc/elements/1.1/"
   xmlns:cc="http://creativecommons.org/ns#"
   xmlns:rdf="http://www.w3.org/1999/02/22-rdf-syntax-ns#"
   xmlns:svg="http://www.w3.org/2000/svg"
   xmlns="http://www.w3.org/2000/svg"
   xmlns:xlink="http://www.w3.org/1999/xlink"
   xmlns:sodipodi="http://sodipodi.sourceforge.net/DTD/sodipodi-0.dtd"
   xmlns:inkscape="http://www.inkscape.org/namespaces/inkscape"
   width="243.22034"
   height="243.22034"
   id="svg3107"
   version="1.1"
   inkscape:version="0.48.5 r10040"
   sodipodi:docname="multi-thread.svg">
  <defs
     id="defs3109">
    <marker
       inkscape:stockid="Arrow1Mstart"
       orient="auto"
       refY="0.0"
       refX="0.0"
       id="Arrow1Mstart"
       style="overflow:visible">
      <path
         id="path3910"
         d="M 0.0,0.0 L 5.0,-5.0 L -12.5,0.0 L 5.0,5.0 L 0.0,0.0 z "
         style="fill-rule:evenodd;stroke:#000000;stroke-width:1.0pt"
         transform="scale(0.4) translate(10,0)" />
    </marker>
    <marker
       inkscape:stockid="Arrow1Mend"
       orient="auto"
       refY="0.0"
       refX="0.0"
       id="Arrow1Mend"
       style="overflow:visible;">
      <path
         id="path3913"
         d="M 0.0,0.0 L 5.0,-5.0 L -12.5,0.0 L 5.0,5.0 L 0.0,0.0 z "
         style="fill-rule:evenodd;stroke:#000000;stroke-width:1.0pt;"
         transform="scale(0.4) rotate(180) translate(10,0)" />
    </marker>
    <marker
       inkscape:stockid="Arrow1Lend"
       orient="auto"
       refY="0.0"
       refX="0.0"
       id="Arrow1Lend"
       style="overflow:visible;">
      <path
         id="path3907"
         d="M 0.0,0.0 L 5.0,-5.0 L -12.5,0.0 L 5.0,5.0 L 0.0,0.0 z "
         style="fill-rule:evenodd;stroke:#000000;stroke-width:1.0pt;"
         transform="scale(0.8) rotate(180) translate(12.5,0)" />
    </marker>
    <marker
       inkscape:stockid="Arrow1Lstart"
       orient="auto"
       refY="0.0"
       refX="0.0"
       id="Arrow1Lstart"
       style="overflow:visible">
      <path
         id="path3904"
         d="M 0.0,0.0 L 5.0,-5.0 L -12.5,0.0 L 5.0,5.0 L 0.0,0.0 z "
         style="fill-rule:evenodd;stroke:#000000;stroke-width:1.0pt"
         transform="scale(0.8) translate(12.5,0)" />
    </marker>
    <radialGradient
       id="SVGID_1_"
       cx="199"
       cy="228"
       r="298.9993"
       gradientUnits="userSpaceOnUse"
       gradientTransform="matrix(0.60805083,0,0,0.60805085,-2.1219864e-6,-1.8071192e-6)">
      <stop
         offset="0"
         style="stop-color:#FFFFFF"
         id="stop4" />
      <stop
         offset="0.4071"
         style="stop-color:#FDFDFD"
         id="stop6" />
      <stop
         offset="0.6247"
         style="stop-color:#F5F5F5"
         id="stop8" />
      <stop
         offset="0.7975"
         style="stop-color:#E7E9E9"
         id="stop10" />
      <stop
         offset="0.9458"
         style="stop-color:#D4D7D7"
         id="stop12" />
      <stop
         offset="1"
         style="stop-color:#CBCECE"
         id="stop14" />
    </radialGradient>
    <radialGradient
       r="298.9993"
       cy="228"
       cx="199"
       gradientTransform="matrix(0.60805083,0,0,0.60805085,235.53269,379.32345)"
       gradientUnits="userSpaceOnUse"
       id="radialGradient3105"
       xlink:href="#SVGID_1_"
       inkscape:collect="always" />
  </defs>
  <sodipodi:namedview
     id="base"
     pagecolor="#ffffff"
     bordercolor="#666666"
     borderopacity="1.0"
     inkscape:pageopacity="0.0"
     inkscape:pageshadow="2"
     inkscape:zoom="5.6"
     inkscape:cx="103.90925"
     inkscape:cy="70.019121"
     inkscape:document-units="px"
     inkscape:current-layer="layer1"
     showgrid="false"
     inkscape:window-width="1920"
     inkscape:window-height="1025"
     inkscape:window-x="-2"
     inkscape:window-y="-3"
     inkscape:window-maximized="1"
     fit-margin-top="0"
     fit-margin-left="0"
     fit-margin-right="0"
     fit-margin-bottom="0" />
  <metadata
     id="metadata3112">
    <rdf:RDF>
      <cc:Work
         rdf:about="">
        <dc:format>image/svg+xml</dc:format>
        <dc:type
           rdf:resource="http://purl.org/dc/dcmitype/StillImage" />
        <dc:title></dc:title>
      </cc:Work>
    </rdf:RDF>
  </metadata>
  <g
     inkscape:label="Calque 1"
     inkscape:groupmode="layer"
     id="layer1"
     transform="translate(-235.5327,-379.32343)">
    <rect
       width="243.22034"
       height="243.22034"
       id="rect16"
       x="235.5327"
       y="379.32343"
       style="fill:url(#radialGradient3105)" />
    <text
       xml:space="preserve"
       style="font-size:40px;font-style:normal;font-variant:normal;font-weight:normal;font-stretch:normal;line-height:125%;letter-spacing:0px;word-spacing:0px;fill:#000000;fill-opacity:1;stroke:none;font-family:DejaVu Serif;-inkscape-font-specification:DejaVu Serif"
       x="56.063465"
       y="134.12386"
       id="text3230"
       sodipodi:linespacing="125%"
       transform="translate(235.5327,379.32343)"><tspan
         sodipodi:role="line"
         id="tspan3232"
         x="56.063465"
         y="134.12386" /></text>
    <path
       style="fill:#1a1a1a;stroke:#000000;stroke-width:1px;stroke-linecap:butt;stroke-linejoin:miter;stroke-opacity:1"
       d="m 302.16837,587.21265 c 0,0 -2.57182,4.37621 -10.15528,3.83974 -7.58345,-0.53646 -17.95883,-2.17447 -19.66461,-3.26437 -1.70579,-1.08991 -1.73739,-3.61509 -1.73739,-3.61509 0,0 0.25964,-4.25133 5.43822,-3.37659 3.89764,0.65837 5.14732,1.47427 7.015,1.52855 1.86768,0.0543 2.85062,-0.26295 4.03081,-0.80813 1.18019,-0.54515 0.94882,-0.87058 3.92095,-1.51392 2.18336,-0.47262 2.94467,-0.81979 5.62674,-0.42403 2.81824,0.41587 3.90554,1.28967 5.16437,2.9913 1.25884,1.70163 0.36119,4.64254 0.36119,4.64254 z"
       id="path11058-3"
       inkscape:connector-curvature="0"
       sodipodi:nodetypes="csscszssssc" />
    <path
       style="fill:#1a1a1a;stroke:#000000;stroke-width:1px;stroke-linecap:butt;stroke-linejoin:miter;stroke-opacity:1"
       d="m 282.7654,557.96076 c 0,0 -2.59145,-4.3646 -10.17243,-3.79406 -7.58095,0.57053 -17.94886,2.25521 -19.64974,3.35272 -1.70087,1.09756 -1.72112,3.62286 -1.72112,3.62286 0,0 0.27874,4.25012 5.45334,3.35211 3.89465,-0.67588 5.14064,-1.49739 7.00806,-1.56007 1.8674,-0.0627 2.85177,0.25018 4.0344,0.79002 1.18264,0.53984 0.95273,0.86631 3.92771,1.49628 2.18547,0.46279 2.94832,0.80655 5.62859,0.39873 2.81634,-0.42854 3.8997,-1.3072 5.15087,-3.01448 1.25112,-1.70731 0.34032,-4.64411 0.34032,-4.64411 z"
       id="path11058-7-7"
       inkscape:connector-curvature="0"
       sodipodi:nodetypes="csscszssssc" />
    <path
       style="fill:#1a1a1a;stroke:#000000;stroke-width:1px;stroke-linecap:butt;stroke-linejoin:miter;stroke-opacity:1"
       d="m 358.33046,586.1371 c 0,0 -2.57182,4.37621 -10.15528,3.83974 -7.58345,-0.53646 -17.95883,-2.17447 -19.66461,-3.26437 -1.70579,-1.08991 -1.73739,-3.61509 -1.73739,-3.61509 0,0 0.25964,-4.25133 5.43822,-3.37659 3.89764,0.65837 5.14732,1.47427 7.015,1.52855 1.86768,0.0543 2.85062,-0.26295 4.03081,-0.80813 1.18019,-0.54515 0.94882,-0.87058 3.92095,-1.51392 2.18336,-0.47262 2.94467,-0.81979 5.62674,-0.42403 2.81824,0.41587 3.90554,1.28967 5.16437,2.9913 1.25884,1.70163 0.36119,4.64254 0.36119,4.64254 z"
       id="path11058-3-5"
       inkscape:connector-curvature="0"
       sodipodi:nodetypes="csscszssssc" />
    <path
       style="fill:#1a1a1a;stroke:#000000;stroke-width:1px;stroke-linecap:butt;stroke-linejoin:miter;stroke-opacity:1"
       d="m 338.92749,556.88521 c 0,0 -2.59145,-4.3646 -10.17243,-3.79406 -7.58095,0.57053 -17.94886,2.25521 -19.64974,3.35272 -1.70087,1.09756 -1.72112,3.62286 -1.72112,3.62286 0,0 0.27874,4.25012 5.45334,3.35211 3.89465,-0.67588 5.14064,-1.49739 7.00806,-1.56007 1.8674,-0.0627 2.85177,0.25018 4.0344,0.79002 1.18264,0.53984 0.95273,0.86631 3.92771,1.49628 2.18547,0.46279 2.94832,0.80655 5.62859,0.39873 2.81634,-0.42854 3.8997,-1.3072 5.15087,-3.01448 1.25112,-1.70731 0.34032,-4.64411 0.34032,-4.64411 z"
       id="path11058-7-7-0"
       inkscape:connector-curvature="0"
       sodipodi:nodetypes="csscszssssc" />
    <path
       style="fill:#1a1a1a;stroke:#000000;stroke-width:1px;stroke-linecap:butt;stroke-linejoin:miter;stroke-opacity:1"
       d="m 412.87871,585.63202 c 0,0 -2.57182,4.37621 -10.15528,3.83974 -7.58345,-0.53646 -17.95883,-2.17447 -19.66461,-3.26437 -1.70579,-1.08991 -1.73739,-3.61509 -1.73739,-3.61509 0,0 0.25964,-4.25133 5.43822,-3.37659 3.89764,0.65837 5.14732,1.47427 7.015,1.52855 1.86768,0.0543 2.85062,-0.26295 4.03081,-0.80813 1.18019,-0.54515 0.94882,-0.87058 3.92095,-1.51392 2.18336,-0.47262 2.94467,-0.81979 5.62674,-0.42403 2.81824,0.41587 3.90554,1.28967 5.16437,2.9913 1.25884,1.70163 0.36119,4.64254 0.36119,4.64254 z"
       id="path11058-3-57"
       inkscape:connector-curvature="0"
       sodipodi:nodetypes="csscszssssc" />
    <path
       style="fill:#1a1a1a;stroke:#000000;stroke-width:1px;stroke-linecap:butt;stroke-linejoin:miter;stroke-opacity:1"
       d="m 393.47574,556.38013 c 0,0 -2.59145,-4.3646 -10.17243,-3.79406 -7.58095,0.57053 -17.94886,2.25521 -19.64974,3.35272 -1.70087,1.09756 -1.72112,3.62286 -1.72112,3.62286 0,0 0.27874,4.25012 5.45334,3.35211 3.89465,-0.67588 5.14064,-1.49739 7.00806,-1.56007 1.8674,-0.0627 2.85177,0.25018 4.0344,0.79002 1.18264,0.53984 0.95273,0.86631 3.92771,1.49628 2.18547,0.46279 2.94832,0.80655 5.62859,0.39873 2.81634,-0.42854 3.8997,-1.3072 5.15087,-3.01448 1.25112,-1.70731 0.34032,-4.64411 0.34032,-4.64411 z"
       id="path11058-7-7-4"
       inkscape:connector-curvature="0"
       sodipodi:nodetypes="csscszssssc" />
    <path
       style="fill:#1a1a1a;stroke:#000000;stroke-width:1px;stroke-linecap:butt;stroke-linejoin:miter;stroke-opacity:1"
       d="m 465.40663,585.12694 c 0,0 -2.57182,4.37621 -10.15528,3.83974 -7.58345,-0.53646 -17.95883,-2.17447 -19.66461,-3.26437 -1.70579,-1.08991 -1.73739,-3.61509 -1.73739,-3.61509 0,0 0.25964,-4.25133 5.43822,-3.37659 3.89764,0.65837 5.14732,1.47427 7.015,1.52855 1.86768,0.0543 2.85062,-0.26295 4.03081,-0.80813 1.18019,-0.54515 0.94882,-0.87058 3.92095,-1.51392 2.18336,-0.47262 2.94467,-0.81979 5.62674,-0.42403 2.81824,0.41587 3.90554,1.28967 5.16437,2.9913 1.25884,1.70163 0.36119,4.64254 0.36119,4.64254 z"
       id="path11058-3-9"
       inkscape:connector-curvature="0"
       sodipodi:nodetypes="csscszssssc" />
    <path
       style="fill:#1a1a1a;stroke:#000000;stroke-width:1px;stroke-linecap:butt;stroke-linejoin:miter;stroke-opacity:1"
       d="m 446.00366,555.87505 c 0,0 -2.59145,-4.3646 -10.17243,-3.79406 -7.58095,0.57053 -17.94886,2.25521 -19.64974,3.35272 -1.70087,1.09756 -1.72112,3.62286 -1.72112,3.62286 0,0 0.27874,4.25012 5.45334,3.35211 3.89465,-0.67588 5.14064,-1.49739 7.00806,-1.56007 1.8674,-0.0627 2.85177,0.25018 4.0344,0.79002 1.18264,0.53984 0.95273,0.86631 3.92771,1.49628 2.18547,0.46279 2.94832,0.80655 5.62859,0.39873 2.81634,-0.42854 3.8997,-1.3072 5.15087,-3.01448 1.25112,-1.70731 0.34032,-4.64411 0.34032,-4.64411 z"
       id="path11058-7-7-01"
       inkscape:connector-curvature="0"
       sodipodi:nodetypes="csscszssssc" />
    <path
       style="fill:#1a1a1a;stroke:#000000;stroke-width:1px;stroke-linecap:butt;stroke-linejoin:miter;stroke-opacity:1"
       d="m 296.91438,510.40835 c 0,0 -2.57182,4.37621 -10.15528,3.83974 -7.58345,-0.53646 -17.95883,-2.17447 -19.66461,-3.26437 -1.70579,-1.08991 -1.73739,-3.61509 -1.73739,-3.61509 0,0 0.25964,-4.25133 5.43822,-3.37659 3.89764,0.65837 5.14732,1.47427 7.015,1.52855 1.86768,0.0543 2.85062,-0.26295 4.03081,-0.80813 1.18019,-0.54515 0.94882,-0.87058 3.92095,-1.51392 2.18336,-0.47262 2.94467,-0.81979 5.62674,-0.42403 2.81824,0.41587 3.90554,1.28967 5.16437,2.9913 1.25884,1.70163 0.36119,4.64254 0.36119,4.64254 z"
       id="path11058-3-576"
       inkscape:connector-curvature="0"
       sodipodi:nodetypes="csscszssssc" />
    <path
       style="fill:#1a1a1a;stroke:#000000;stroke-width:1px;stroke-linecap:butt;stroke-linejoin:miter;stroke-opacity:1"
       d="m 277.51141,481.15646 c 0,0 -2.59145,-4.3646 -10.17243,-3.79406 -7.58095,0.57053 -17.94886,2.25521 -19.64974,3.35272 -1.70087,1.09756 -1.72112,3.62286 -1.72112,3.62286 0,0 0.27874,4.25012 5.45334,3.35211 3.89465,-0.67588 5.14064,-1.49739 7.00806,-1.56007 1.8674,-0.0627 2.85177,0.25018 4.0344,0.79002 1.18264,0.53984 0.95273,0.86631 3.92771,1.49628 2.18547,0.46279 2.94832,0.80655 5.62859,0.39873 2.81634,-0.42854 3.8997,-1.3072 5.15087,-3.01448 1.25112,-1.70731 0.34032,-4.64411 0.34032,-4.64411 z"
       id="path11058-7-7-5"
       inkscape:connector-curvature="0"
       sodipodi:nodetypes="csscszssssc" />
    <path
       style="fill:#1a1a1a;stroke:#000000;stroke-width:1px;stroke-linecap:butt;stroke-linejoin:miter;stroke-opacity:1"
       d="m 353.07647,509.3328 c 0,0 -2.57182,4.37621 -10.15528,3.83974 -7.58345,-0.53646 -17.95883,-2.17447 -19.66461,-3.26437 -1.70579,-1.08991 -1.73739,-3.61509 -1.73739,-3.61509 0,0 0.25964,-4.25133 5.43822,-3.37659 3.89764,0.65837 5.14732,1.47427 7.015,1.52855 1.86768,0.0543 2.85062,-0.26295 4.03081,-0.80813 1.18019,-0.54515 0.94882,-0.87058 3.92095,-1.51392 2.18336,-0.47262 2.94467,-0.81979 5.62674,-0.42403 2.81824,0.41587 3.90554,1.28967 5.16437,2.9913 1.25884,1.70163 0.36119,4.64254 0.36119,4.64254 z"
       id="path11058-3-5-1"
       inkscape:connector-curvature="0"
       sodipodi:nodetypes="csscszssssc" />
    <path
       style="fill:#1a1a1a;stroke:#000000;stroke-width:1px;stroke-linecap:butt;stroke-linejoin:miter;stroke-opacity:1"
       d="m 333.6735,480.08091 c 0,0 -2.59145,-4.3646 -10.17243,-3.79406 -7.58095,0.57053 -17.94886,2.25521 -19.64974,3.35272 -1.70087,1.09756 -1.72112,3.62286 -1.72112,3.62286 0,0 0.27874,4.25012 5.45334,3.35211 3.89465,-0.67588 5.14064,-1.49739 7.00806,-1.56007 1.8674,-0.0627 2.85177,0.25018 4.0344,0.79002 1.18264,0.53984 0.95273,0.86631 3.92771,1.49628 2.18547,0.46279 2.94832,0.80655 5.62859,0.39873 2.81634,-0.42854 3.8997,-1.3072 5.15087,-3.01448 1.25112,-1.70731 0.34032,-4.64411 0.34032,-4.64411 z"
       id="path11058-7-7-0-6"
       inkscape:connector-curvature="0"
       sodipodi:nodetypes="csscszssssc" />
    <path
       style="fill:#1a1a1a;stroke:#000000;stroke-width:1px;stroke-linecap:butt;stroke-linejoin:miter;stroke-opacity:1"
       d="m 407.62472,508.82772 c 0,0 -2.57182,4.37621 -10.15528,3.83974 -7.58345,-0.53646 -17.95883,-2.17447 -19.66461,-3.26437 -1.70579,-1.08991 -1.73739,-3.61509 -1.73739,-3.61509 0,0 0.25964,-4.25133 5.43822,-3.37659 3.89764,0.65837 5.14732,1.47427 7.015,1.52855 1.86768,0.0543 2.85062,-0.26295 4.03081,-0.80813 1.18019,-0.54515 0.94882,-0.87058 3.92095,-1.51392 2.18336,-0.47262 2.94467,-0.81979 5.62674,-0.42403 2.81824,0.41587 3.90554,1.28967 5.16437,2.9913 1.25884,1.70163 0.36119,4.64254 0.36119,4.64254 z"
       id="path11058-3-57-9"
       inkscape:connector-curvature="0"
       sodipodi:nodetypes="csscszssssc" />
    <path
       style="fill:#1a1a1a;stroke:#000000;stroke-width:1px;stroke-linecap:butt;stroke-linejoin:miter;stroke-opacity:1"
       d="m 388.22175,479.57583 c 0,0 -2.59145,-4.3646 -10.17243,-3.79406 -7.58095,0.57053 -17.94886,2.25521 -19.64974,3.35272 -1.70087,1.09756 -1.72112,3.62286 -1.72112,3.62286 0,0 0.27874,4.25012 5.45334,3.35211 3.89465,-0.67588 5.14064,-1.49739 7.00806,-1.56007 1.8674,-0.0627 2.85177,0.25018 4.0344,0.79002 1.18264,0.53984 0.95273,0.86631 3.92771,1.49628 2.18547,0.46279 2.94832,0.80655 5.62859,0.39873 2.81634,-0.42854 3.8997,-1.3072 5.15087,-3.01448 1.25112,-1.70731 0.34032,-4.64411 0.34032,-4.64411 z"
       id="path11058-7-7-4-9"
       inkscape:connector-curvature="0"
       sodipodi:nodetypes="csscszssssc" />
    <path
       style="fill:#1a1a1a;stroke:#000000;stroke-width:1px;stroke-linecap:butt;stroke-linejoin:miter;stroke-opacity:1"
       d="m 460.15264,508.32264 c 0,0 -2.57182,4.37621 -10.15528,3.83974 -7.58345,-0.53646 -17.95883,-2.17447 -19.66461,-3.26437 -1.70579,-1.08991 -1.73739,-3.61509 -1.73739,-3.61509 0,0 0.25964,-4.25133 5.43822,-3.37659 3.89764,0.65837 5.14732,1.47427 7.015,1.52855 1.86768,0.0543 2.85062,-0.26295 4.03081,-0.80813 1.18019,-0.54515 0.94882,-0.87058 3.92095,-1.51392 2.18336,-0.47262 2.94467,-0.81979 5.62674,-0.42403 2.81824,0.41587 3.90554,1.28967 5.16437,2.9913 1.25884,1.70163 0.36119,4.64254 0.36119,4.64254 z"
       id="path11058-3-9-1"
       inkscape:connector-curvature="0"
       sodipodi:nodetypes="csscszssssc" />
    <path
       style="fill:#1a1a1a;stroke:#000000;stroke-width:1px;stroke-linecap:butt;stroke-linejoin:miter;stroke-opacity:1"
       d="m 440.74967,479.07075 c 0,0 -2.59145,-4.3646 -10.17243,-3.79406 -7.58095,0.57053 -17.94886,2.25521 -19.64974,3.35272 -1.70087,1.09756 -1.72112,3.62286 -1.72112,3.62286 0,0 0.27874,4.25012 5.45334,3.35211 3.89465,-0.67588 5.14064,-1.49739 7.00806,-1.56007 1.8674,-0.0627 2.85177,0.25018 4.0344,0.79002 1.18264,0.53984 0.95273,0.86631 3.92771,1.49628 2.18547,0.46279 2.94832,0.80655 5.62859,0.39873 2.81634,-0.42854 3.8997,-1.3072 5.15087,-3.01448 1.25112,-1.70731 0.34032,-4.64411 0.34032,-4.64411 z"
       id="path11058-7-7-01-1"
       inkscape:connector-curvature="0"
       sodipodi:nodetypes="csscszssssc" />
    <path
       style="fill:#1a1a1a;stroke:#000000;stroke-width:1px;stroke-linecap:butt;stroke-linejoin:miter;stroke-opacity:1"
       d="m 297.92454,438.68752 c 0,0 -2.57182,4.37621 -10.15528,3.83974 -7.58345,-0.53646 -17.95883,-2.17447 -19.66461,-3.26437 -1.70579,-1.08991 -1.73739,-3.61509 -1.73739,-3.61509 0,0 0.25964,-4.25133 5.43822,-3.37659 3.89764,0.65837 5.14732,1.47427 7.015,1.52855 1.86768,0.0543 2.85062,-0.26295 4.03081,-0.80813 1.18019,-0.54515 0.94882,-0.87058 3.92095,-1.51392 2.18336,-0.47262 2.94467,-0.81979 5.62674,-0.42403 2.81824,0.41587 3.90554,1.28967 5.16437,2.9913 1.25884,1.70163 0.36119,4.64254 0.36119,4.64254 z"
       id="path11058-3-0"
       inkscape:connector-curvature="0"
       sodipodi:nodetypes="csscszssssc" />
    <path
       style="fill:#1a1a1a;stroke:#000000;stroke-width:1px;stroke-linecap:butt;stroke-linejoin:miter;stroke-opacity:1"
       d="m 278.52157,409.43563 c 0,0 -2.59145,-4.3646 -10.17243,-3.79406 -7.58095,0.57053 -17.94886,2.25521 -19.64974,3.35272 -1.70087,1.09756 -1.72112,3.62286 -1.72112,3.62286 0,0 0.27874,4.25012 5.45334,3.35211 3.89465,-0.67588 5.14064,-1.49739 7.00806,-1.56007 1.8674,-0.0627 2.85177,0.25018 4.0344,0.79002 1.18264,0.53984 0.95273,0.86631 3.92771,1.49628 2.18547,0.46279 2.94832,0.80655 5.62859,0.39873 2.81634,-0.42854 3.8997,-1.3072 5.15087,-3.01448 1.25112,-1.70731 0.34032,-4.64411 0.34032,-4.64411 z"
       id="path11058-7-7-6"
       inkscape:connector-curvature="0"
       sodipodi:nodetypes="csscszssssc" />
    <path
       style="fill:#1a1a1a;stroke:#000000;stroke-width:1px;stroke-linecap:butt;stroke-linejoin:miter;stroke-opacity:1"
       d="m 354.08663,437.61197 c 0,0 -2.57182,4.37621 -10.15528,3.83974 -7.58345,-0.53646 -17.95883,-2.17447 -19.66461,-3.26437 -1.70579,-1.08991 -1.73739,-3.61509 -1.73739,-3.61509 0,0 0.25964,-4.25133 5.43822,-3.37659 3.89764,0.65837 5.14732,1.47427 7.015,1.52855 1.86768,0.0543 2.85062,-0.26295 4.03081,-0.80813 1.18019,-0.54515 0.94882,-0.87058 3.92095,-1.51392 2.18336,-0.47262 2.94467,-0.81979 5.62674,-0.42403 2.81824,0.41587 3.90554,1.28967 5.16437,2.9913 1.25884,1.70163 0.36119,4.64254 0.36119,4.64254 z"
       id="path11058-3-5-4"
       inkscape:connector-curvature="0"
       sodipodi:nodetypes="csscszssssc" />
    <path
       style="fill:#1a1a1a;stroke:#000000;stroke-width:1px;stroke-linecap:butt;stroke-linejoin:miter;stroke-opacity:1"
       d="m 334.68366,408.36008 c 0,0 -2.59145,-4.3646 -10.17243,-3.79406 -7.58095,0.57053 -17.94886,2.25521 -19.64974,3.35272 -1.70087,1.09756 -1.72112,3.62286 -1.72112,3.62286 0,0 0.27874,4.25012 5.45334,3.35211 3.89465,-0.67588 5.14064,-1.49739 7.00806,-1.56007 1.8674,-0.0627 2.85177,0.25018 4.0344,0.79002 1.18264,0.53984 0.95273,0.86631 3.92771,1.49628 2.18547,0.46279 2.94832,0.80655 5.62859,0.39873 2.81634,-0.42854 3.8997,-1.3072 5.15087,-3.01448 1.25112,-1.70731 0.34032,-4.64411 0.34032,-4.64411 z"
       id="path11058-7-7-0-63"
       inkscape:connector-curvature="0"
       sodipodi:nodetypes="csscszssssc" />
    <path
       style="fill:#1a1a1a;stroke:#000000;stroke-width:1px;stroke-linecap:butt;stroke-linejoin:miter;stroke-opacity:1"
       d="m 408.63488,437.10689 c 0,0 -2.57182,4.37621 -10.15528,3.83974 -7.58345,-0.53646 -17.95883,-2.17447 -19.66461,-3.26437 -1.70579,-1.08991 -1.73739,-3.61509 -1.73739,-3.61509 0,0 0.25964,-4.25133 5.43822,-3.37659 3.89764,0.65837 5.14732,1.47427 7.015,1.52855 1.86768,0.0543 2.85062,-0.26295 4.03081,-0.80813 1.18019,-0.54515 0.94882,-0.87058 3.92095,-1.51392 2.18336,-0.47262 2.94467,-0.81979 5.62674,-0.42403 2.81824,0.41587 3.90554,1.28967 5.16437,2.9913 1.25884,1.70163 0.36119,4.64254 0.36119,4.64254 z"
       id="path11058-3-57-6"
       inkscape:connector-curvature="0"
       sodipodi:nodetypes="csscszssssc" />
    <path
       style="fill:#1a1a1a;stroke:#000000;stroke-width:1px;stroke-linecap:butt;stroke-linejoin:miter;stroke-opacity:1"
       d="m 389.23191,407.855 c 0,0 -2.59145,-4.3646 -10.17243,-3.79406 -7.58095,0.57053 -17.94886,2.25521 -19.64974,3.35272 -1.70087,1.09756 -1.72112,3.62286 -1.72112,3.62286 0,0 0.27874,4.25012 5.45334,3.35211 3.89465,-0.67588 5.14064,-1.49739 7.00806,-1.56007 1.8674,-0.0627 2.85177,0.25018 4.0344,0.79002 1.18264,0.53984 0.95273,0.86631 3.92771,1.49628 2.18547,0.46279 2.94832,0.80655 5.62859,0.39873 2.81634,-0.42854 3.8997,-1.3072 5.15087,-3.01448 1.25112,-1.70731 0.34032,-4.64411 0.34032,-4.64411 z"
       id="path11058-7-7-4-93"
       inkscape:connector-curvature="0"
       sodipodi:nodetypes="csscszssssc" />
    <path
       style="fill:#1a1a1a;stroke:#000000;stroke-width:1px;stroke-linecap:butt;stroke-linejoin:miter;stroke-opacity:1"
       d="m 461.1628,436.60181 c 0,0 -2.57182,4.37621 -10.15528,3.83974 -7.58345,-0.53646 -17.95883,-2.17447 -19.66461,-3.26437 -1.70579,-1.08991 -1.73739,-3.61509 -1.73739,-3.61509 0,0 0.25964,-4.25133 5.43822,-3.37659 3.89764,0.65837 5.14732,1.47427 7.015,1.52855 1.86768,0.0543 2.85062,-0.26295 4.03081,-0.80813 1.18019,-0.54515 0.94882,-0.87058 3.92095,-1.51392 2.18336,-0.47262 2.94467,-0.81979 5.62674,-0.42403 2.81824,0.41587 3.90554,1.28967 5.16437,2.9913 1.25884,1.70163 0.36119,4.64254 0.36119,4.64254 z"
       id="path11058-3-9-6"
       inkscape:connector-curvature="0"
       sodipodi:nodetypes="csscszssssc" />
    <path
       style="fill:#1a1a1a;stroke:#000000;stroke-width:1px;stroke-linecap:butt;stroke-linejoin:miter;stroke-opacity:1"
       d="m 441.75983,407.34992 c 0,0 -2.59145,-4.3646 -10.17243,-3.79406 -7.58095,0.57053 -17.94886,2.25521 -19.64974,3.35272 -1.70087,1.09756 -1.72112,3.62286 -1.72112,3.62286 0,0 0.27874,4.25012 5.45334,3.35211 3.89465,-0.67588 5.14064,-1.49739 7.00806,-1.56007 1.8674,-0.0627 2.85177,0.25018 4.0344,0.79002 1.18264,0.53984 0.95273,0.86631 3.92771,1.49628 2.18547,0.46279 2.94832,0.80655 5.62859,0.39873 2.81634,-0.42854 3.8997,-1.3072 5.15087,-3.01448 1.25112,-1.70731 0.34032,-4.64411 0.34032,-4.64411 z"
       id="path11058-7-7-01-4"
       inkscape:connector-curvature="0"
       sodipodi:nodetypes="csscszssssc" />
    <path
       style="fill:none;stroke:#000000;stroke-width:1;stroke-linecap:butt;stroke-linejoin:miter;stroke-opacity:1;stroke-miterlimit:4;stroke-dasharray:1,1;stroke-dashoffset:0"
       d="m 0,76.040091 243.44676,0"
       id="path11522"
       inkscape:connector-curvature="0"
       transform="translate(235.5327,379.32343)" />
    <path
       style="fill:none;stroke:#000000;stroke-width:1;stroke-linecap:butt;stroke-linejoin:miter;stroke-miterlimit:4;stroke-opacity:1;stroke-dasharray:1, 1;stroke-dashoffset:0"
       d="m 235.5327,531.63004 243.44676,0"
       id="path11522-9"
       inkscape:connector-curvature="0" />
    <path
       style="fill:none;stroke:#000000;stroke-width:1;stroke-linecap:butt;stroke-linejoin:miter;stroke-miterlimit:4;stroke-opacity:1;stroke-dasharray:1, 1;stroke-dashoffset:0"
       d="m 251.69514,623.04884 0,-243.44676"
       id="path11522-2"
       inkscape:connector-curvature="0" />
    <path
       sodipodi:type="arc"
       style="fill:#008000;fill-opacity:1;fill-rule:nonzero;stroke:none;stroke-width:1;stroke-miterlimit:4;stroke-opacity:1;stroke-dasharray:none;stroke-dashoffset:0"
       id="path11560"
       sodipodi:cx="19.192898"
       sodipodi:cy="231.35104"
       sodipodi:rx="11.616755"
       sodipodi:ry="11.364216"
       d="m 30.809652,231.35104 a 11.616755,11.364216 0 1 1 -23.2335087,0 11.616755,11.364216 0 1 1 23.2335087,0 z"
       transform="translate(232.50224,377.8082)" />
    <path
       sodipodi:type="star"
       style="fill:#ffffff;fill-opacity:1;fill-rule:nonzero;stroke:none"
       id="path11562"
       sodipodi:sides="3"
       sodipodi:cx="3.0357144"
       sodipodi:cy="166.79176"
       sodipodi:r1="10.247262"
       sodipodi:r2="5.123631"
       sodipodi:arg1="0.84704833"
       sodipodi:arg2="1.8942459"
       inkscape:flatsided="false"
       inkscape:rounded="0"
       inkscape:randomized="0"
       d="m 9.8214287,174.47033 -8.4142048,-2.82062 -8.4142046,-2.82063 6.64983799,-5.8766 6.64983781,-5.8766 1.7643669,8.69723 z"
       transform="matrix(0.18445312,0.5519986,-0.5519986,0.18445312,341.71551,576.72113)"
       inkscape:transform-center-x="-1.5502148"
       inkscape:transform-center-y="0.79066839" />
  </g>
</svg>
