<?xml version="1.0" encoding="UTF-8" standalone="no"?>
<!-- Created with Inkscape (http://www.inkscape.org/) -->

<svg
   xmlns:dc="http://purl.org/dc/elements/1.1/"
   xmlns:cc="http://creativecommons.org/ns#"
   xmlns:rdf="http://www.w3.org/1999/02/22-rdf-syntax-ns#"
   xmlns:svg="http://www.w3.org/2000/svg"
   xmlns="http://www.w3.org/2000/svg"
   xmlns:sodipodi="http://sodipodi.sourceforge.net/DTD/sodipodi-0.dtd"
   xmlns:inkscape="http://www.inkscape.org/namespaces/inkscape"
   width="384.03812"
   height="186.82034"
   id="svg6334"
   version="1.1"
   inkscape:version="0.48.5 r10040"
   sodipodi:docname="github-1.svg">
  <defs
     id="defs6336" />
  <sodipodi:namedview
     id="base"
     pagecolor="#ffffff"
     bordercolor="#666666"
     borderopacity="1.0"
     inkscape:pageopacity="0.0"
     inkscape:pageshadow="2"
     inkscape:zoom="1.4"
     inkscape:cx="383.76142"
     inkscape:cy="-37.481159"
     inkscape:document-units="px"
     inkscape:current-layer="layer1"
     showgrid="false"
     fit-margin-top="0"
     fit-margin-left="0"
     fit-margin-right="0"
     fit-margin-bottom="0"
     inkscape:window-width="1920"
     inkscape:window-height="1025"
     inkscape:window-x="-2"
     inkscape:window-y="-3"
     inkscape:window-maximized="1" />
  <metadata
     id="metadata6339">
    <rdf:RDF>
      <cc:Work
         rdf:about="">
        <dc:format>image/svg+xml</dc:format>
        <dc:type
           rdf:resource="http://purl.org/dc/dcmitype/StillImage" />
        <dc:title></dc:title>
      </cc:Work>
    </rdf:RDF>
  </metadata>
  <g
     inkscape:label="Calque 1"
     inkscape:groupmode="layer"
     id="layer1"
     transform="translate(-214.18592,-553.45844)">
    <path
       style="fill:#95cce7;fill-opacity:1;stroke-width:20;stroke-miterlimit:4;stroke-dasharray:none"
       d="m 295.6875,64.59375 c -7.6485,0.262891 -22.92588,5.79181 -34.75,12.84375 l -8.5,5.0625 -9.5,-1.78125 c -7.38826,-1.39779 -14.55632,-1.8125 -32.03125,-1.8125 -19.66904,0 -23.87339,0.28517 -33.59375,2.3125 l -11.125,2.3125 L 159.59375,79.5 c -9.33154,-5.71153 -17.27348,-9.57494 -24.375,-11.90625 -7.0969,-2.32979 -16.30822,-3.60357 -17.90625,-2.46875 -1.50846,1.07122 -4.08688,9.33888 -5.5,17.6875 -1.28237,7.57615 -0.68476,18.51864 1.375,25.5625 l 1.3125,4.5 -4.53125,6 c -9.44695,12.53389 -14.04255,27.23929 -14.03125,44.875 0.0063,9.84877 2.02084,25.30402 4.28125,32.71875 l 1.40625,4.59375 -7.75,-0.4375 c -10.87809,-0.62973 -44.31595,1.48204 -60.15625,3.8125 -7.3232,1.07741 -13.5025,1.96575 -13.75,1.96875 -0.2475,0.003 -0.0225,0.42674 0.5,0.9375 0.58474,0.57162 2.8599,0.55735 5.9375,-0.0312 12.19581,-2.3325 31.71005,-4.0327 52.65625,-4.59375 l 22.65625,-0.625 1.65625,3.25 c 0.92262,1.78416 1.55305,3.37155 1.375,3.53125 -0.17806,0.15971 -7.31875,0.83533 -15.84375,1.5 -30.83757,2.40433 -70.60969,9.73405 -67.84375,12.5 0.32029,0.32029 1.74485,0.16161 3.15625,-0.375 9.89462,-3.76193 48.60497,-9.6369 69.8125,-10.59375 l 12.375,-0.5625 4.0625,6.28125 c 10.16269,15.72185 32.62059,27.81053 58.9375,31.75 5.7014,0.85346 8.51328,1.20613 9.28125,2.03125 l 65.78125,0 2.6875,-0.4375 c 22.94672,-3.70195 35.45921,-7.41397 46.0625,-13.6875 8.40341,-4.97195 16.68994,-13.14697 20.875,-20.5625 l 3.1875,-5.59375 12.5625,0.625 c 20.96361,1.06433 44.2,4.363 63.3125,9 5.3625,1.30102 9.75,2.01024 9.75,1.5625 0,-3.07476 -44.89416,-10.61416 -74.25,-12.46875 -5.9125,-0.37353 -10.75,-0.77902 -10.75,-0.90625 0,-0.12723 0.48994,-1.64292 1.09375,-3.375 l 1.125,-3.15625 15.625,0 c 22.64604,0.006 54.19458,2.6934 65.875,5.625 1.26564,0.31766 2.28125,0.1446 2.28125,-0.40625 0,-2.65903 -34.21121,-6.30576 -61.25,-6.53125 -11.961,-0.0998 -21.748,-0.30024 -21.75,-0.4375 -0.002,-0.13725 0.74911,-4.41225 1.65625,-9.5 2.35741,-13.22195 2.39648,-39.10129 0.0625,-47.75 -2.49354,-9.23995 -7.57187,-19.43126 -13.53125,-27.1875 l -5.125,-6.6875 1.09375,-5.8125 c 1.49879,-7.97683 0.47953,-23.3617 -2.09375,-31.5625 -1.69142,-5.3904 -2.59583,-6.83458 -4.5,-7.3125 -0.74879,-0.187934 -1.68861,-0.287556 -2.78125,-0.25 z m -131.15625,87.875 c 3.67237,0.006 8.81138,0.20427 16.8125,0.53125 12.1387,0.49607 29.0375,0.68125 37.5625,0.40625 8.525,-0.275 23.15,-0.5 32.5,-0.5 16.37584,0 17.23663,0.0891 22.78125,2.6875 7.32487,3.43264 14.82099,11.22498 19,19.71875 3.02779,6.15393 3.21455,7.17575 3.15625,17.0625 -0.16077,27.26539 -11.44532,41.32771 -38.34375,47.6875 -9.51487,2.24967 -68.84156,2.8397 -81.59375,0.8125 -26.12493,-4.15304 -41.01678,-13.66861 -47.6875,-30.46875 -1.80122,-4.53634 -2.2013,-7.60253 -2.25,-17.5 -0.0543,-11.04233 0.17891,-12.45813 2.6875,-17.8125 1.66865,-3.56161 5.17599,-8.30099 9.0625,-12.1875 5.56427,-5.56427 7.27425,-6.60505 13.71875,-8.5625 4.44337,-1.34963 6.47314,-1.88511 12.59375,-1.875 z m 95.75,14.875 c -6.35894,0.14029 -12.63754,4.91264 -15.84375,14 -1.72167,4.87974 -1.99917,15.80985 -0.53125,21.09375 1.5508,5.58219 6.41852,12.42422 10.125,14.25 10.7132,5.27724 21.37749,-2.96434 23.84375,-18.4375 0.97276,-6.10308 -0.26453,-15.54392 -2.625,-20.21875 -3.69308,-7.31402 -9.35792,-10.81129 -14.96875,-10.6875 z m -94.9375,0.0625 c -6.76818,0 -11.42301,3.28401 -14.96875,10.53125 -6.79763,13.89385 -3.08083,31.83644 8,38.59375 13.97705,8.52347 28.58791,-12.28456 23.03125,-32.8125 -1.43011,-5.28328 -2.75892,-7.61987 -6.46875,-11.46875 -4.33917,-4.50181 -4.98346,-4.84375 -9.59375,-4.84375 z m -0.3125,9 c 12.66779,0 16.24366,24.92789 4.59375,32.03125 -3.75867,2.2918 -4.21012,2.32488 -8.40625,0.5 -4.58165,-1.99253 -7.64425,-8.40453 -7.65625,-16.03125 -0.0101,-6.43339 1.10146,-9.4026 5.15625,-13.75 1.91349,-2.05158 3.52534,-2.75 6.3125,-2.75 z m 95.375,0 c 13.15398,0 16.48628,27.36359 3.96875,32.59375 -4.30643,1.79934 -4.32566,1.77315 -8.15625,-0.5625 -11.50836,-7.01705 -8.24127,-32.03125 4.1875,-32.03125 z m -49,35 c -4.21115,0 -5.92667,4.41709 -2.90625,7.4375 0.86428,0.86429 2.15982,1.5625 2.90625,1.5625 0.74643,0 2.07322,-0.69821 2.9375,-1.5625 3.02042,-3.02041 1.27365,-7.4375 -2.9375,-7.4375 z m -9.53125,13.875 c -0.23199,-0.0217 -0.39357,0.0465 -0.5,0.21875 -1.07573,1.74057 1.53481,5.64276 4.9375,7.375 5.32865,2.71272 11.89443,0.61693 14.75,-4.71875 1.88708,-3.52604 -0.32472,-3.68305 -3.5625,-0.25 -2.2296,2.36405 -4.2297,3.5 -6.09375,3.5 -1.86405,0 -3.8329,-1.13595 -6.0625,-3.5 -1.55186,-1.64546 -2.77277,-2.55977 -3.46875,-2.625 z"
       transform="translate(194.3178,488.87253)"
       id="path6477"
       inkscape:connector-curvature="0" />
  </g>
</svg>
