<?xml version="1.0" encoding="UTF-8" standalone="no"?>
<!-- Created with Inkscape (http://www.inkscape.org/) -->

<svg
   xmlns:dc="http://purl.org/dc/elements/1.1/"
   xmlns:cc="http://creativecommons.org/ns#"
   xmlns:rdf="http://www.w3.org/1999/02/22-rdf-syntax-ns#"
   xmlns:svg="http://www.w3.org/2000/svg"
   xmlns="http://www.w3.org/2000/svg"
   xmlns:xlink="http://www.w3.org/1999/xlink"
   xmlns:sodipodi="http://sodipodi.sourceforge.net/DTD/sodipodi-0.dtd"
   xmlns:inkscape="http://www.inkscape.org/namespaces/inkscape"
   width="243.22034"
   height="243.22034"
   id="svg3107"
   version="1.1"
   inkscape:version="0.48.5 r10040"
   sodipodi:docname="metric-distr-on-call-site.svg">
  <defs
     id="defs3109">
    <marker
       inkscape:stockid="Arrow1Mstart"
       orient="auto"
       refY="0.0"
       refX="0.0"
       id="Arrow1Mstart"
       style="overflow:visible">
      <path
         id="path3910"
         d="M 0.0,0.0 L 5.0,-5.0 L -12.5,0.0 L 5.0,5.0 L 0.0,0.0 z "
         style="fill-rule:evenodd;stroke:#000000;stroke-width:1.0pt"
         transform="scale(0.4) translate(10,0)" />
    </marker>
    <marker
       inkscape:stockid="Arrow1Mend"
       orient="auto"
       refY="0.0"
       refX="0.0"
       id="Arrow1Mend"
       style="overflow:visible;">
      <path
         id="path3913"
         d="M 0.0,0.0 L 5.0,-5.0 L -12.5,0.0 L 5.0,5.0 L 0.0,0.0 z "
         style="fill-rule:evenodd;stroke:#000000;stroke-width:1.0pt;"
         transform="scale(0.4) rotate(180) translate(10,0)" />
    </marker>
    <marker
       inkscape:stockid="Arrow1Lend"
       orient="auto"
       refY="0.0"
       refX="0.0"
       id="Arrow1Lend"
       style="overflow:visible;">
      <path
         id="path3907"
         d="M 0.0,0.0 L 5.0,-5.0 L -12.5,0.0 L 5.0,5.0 L 0.0,0.0 z "
         style="fill-rule:evenodd;stroke:#000000;stroke-width:1.0pt;"
         transform="scale(0.8) rotate(180) translate(12.5,0)" />
    </marker>
    <marker
       inkscape:stockid="Arrow1Lstart"
       orient="auto"
       refY="0.0"
       refX="0.0"
       id="Arrow1Lstart"
       style="overflow:visible">
      <path
         id="path3904"
         d="M 0.0,0.0 L 5.0,-5.0 L -12.5,0.0 L 5.0,5.0 L 0.0,0.0 z "
         style="fill-rule:evenodd;stroke:#000000;stroke-width:1.0pt"
         transform="scale(0.8) translate(12.5,0)" />
    </marker>
    <radialGradient
       id="SVGID_1_"
       cx="199"
       cy="228"
       r="298.9993"
       gradientUnits="userSpaceOnUse"
       gradientTransform="matrix(0.60805083,0,0,0.60805085,-2.1219864e-6,-1.8071192e-6)">
      <stop
         offset="0"
         style="stop-color:#FFFFFF"
         id="stop4" />
      <stop
         offset="0.4071"
         style="stop-color:#FDFDFD"
         id="stop6" />
      <stop
         offset="0.6247"
         style="stop-color:#F5F5F5"
         id="stop8" />
      <stop
         offset="0.7975"
         style="stop-color:#E7E9E9"
         id="stop10" />
      <stop
         offset="0.9458"
         style="stop-color:#D4D7D7"
         id="stop12" />
      <stop
         offset="1"
         style="stop-color:#CBCECE"
         id="stop14" />
    </radialGradient>
    <radialGradient
       r="298.9993"
       cy="228"
       cx="199"
       gradientTransform="matrix(0.60805083,0,0,0.60805085,235.53269,379.32345)"
       gradientUnits="userSpaceOnUse"
       id="radialGradient3105"
       xlink:href="#SVGID_1_"
       inkscape:collect="always" />
    <marker
       inkscape:stockid="Arrow1Mstart"
       orient="auto"
       refY="0"
       refX="0"
       id="Arrow1Mstart-4"
       style="overflow:visible">
      <path
         inkscape:connector-curvature="0"
         id="path3910-2"
         d="M 0,0 5,-5 -12.5,0 5,5 0,0 z"
         style="fill-rule:evenodd;stroke:#000000;stroke-width:1pt"
         transform="matrix(0.4,0,0,0.4,4,0)" />
    </marker>
    <marker
       inkscape:stockid="Arrow1Mend"
       orient="auto"
       refY="0"
       refX="0"
       id="Arrow1Mend-0"
       style="overflow:visible">
      <path
         inkscape:connector-curvature="0"
         id="path3913-4"
         d="M 0,0 5,-5 -12.5,0 5,5 0,0 z"
         style="fill-rule:evenodd;stroke:#000000;stroke-width:1pt"
         transform="matrix(-0.4,0,0,-0.4,-4,0)" />
    </marker>
  </defs>
  <sodipodi:namedview
     id="base"
     pagecolor="#ffffff"
     bordercolor="#666666"
     borderopacity="1.0"
     inkscape:pageopacity="0.0"
     inkscape:pageshadow="2"
     inkscape:zoom="1.979899"
     inkscape:cx="177.28787"
     inkscape:cy="188.42035"
     inkscape:document-units="px"
     inkscape:current-layer="layer1"
     showgrid="false"
     inkscape:window-width="1920"
     inkscape:window-height="1025"
     inkscape:window-x="-2"
     inkscape:window-y="-3"
     inkscape:window-maximized="1"
     fit-margin-top="0"
     fit-margin-left="0"
     fit-margin-right="0"
     fit-margin-bottom="0" />
  <metadata
     id="metadata3112">
    <rdf:RDF>
      <cc:Work
         rdf:about="">
        <dc:format>image/svg+xml</dc:format>
        <dc:type
           rdf:resource="http://purl.org/dc/dcmitype/StillImage" />
        <dc:title></dc:title>
      </cc:Work>
    </rdf:RDF>
  </metadata>
  <g
     inkscape:label="Calque 1"
     inkscape:groupmode="layer"
     id="layer1"
     transform="translate(-235.5327,-379.32343)">
    <rect
       width="243.22034"
       height="243.22034"
       id="rect16"
       x="235.5327"
       y="379.32343"
       style="fill:url(#radialGradient3105)" />
    <text
       xml:space="preserve"
       style="font-size:40px;font-style:normal;font-variant:normal;font-weight:normal;font-stretch:normal;line-height:125%;letter-spacing:0px;word-spacing:0px;fill:#000000;fill-opacity:1;stroke:none;font-family:DejaVu Serif;-inkscape-font-specification:DejaVu Serif"
       x="56.063465"
       y="134.12386"
       id="text3230"
       sodipodi:linespacing="125%"
       transform="translate(235.5327,379.32343)"><tspan
         sodipodi:role="line"
         id="tspan3232"
         x="56.063465"
         y="134.12386" /></text>
    <path
       style="fill:none;stroke:#404040;stroke-width:3.22990561;stroke-linecap:butt;stroke-linejoin:miter;stroke-miterlimit:4;stroke-opacity:1;stroke-dasharray:none"
       d="m 262.77128,424.80747 0,153.036 194.17885,0"
       id="path3831"
       inkscape:connector-curvature="0"
       sodipodi:nodetypes="ccc" />
    <path
       sodipodi:type="arc"
       style="fill:#6d6d6d;fill-opacity:1;fill-rule:nonzero;stroke:none"
       id="path13301"
       sodipodi:cx="47.982246"
       sodipodi:cy="61.140343"
       sodipodi:rx="4.0406103"
       sodipodi:ry="3.2829957"
       d="m 52.022857,61.140343 a 4.0406103,3.2829957 0 1 1 -8.081221,0 4.0406103,3.2829957 0 1 1 8.081221,0 z"
       transform="matrix(1.125,0,0,1.3076923,230.04,361.52117)" />
    <path
       sodipodi:type="arc"
       style="fill:#6d6d6d;fill-opacity:1;fill-rule:nonzero;stroke:none"
       id="path13301-9"
       sodipodi:cx="47.982246"
       sodipodi:cy="61.140343"
       sodipodi:rx="4.0406103"
       sodipodi:ry="3.2829957"
       d="m 52.022857,61.140343 a 4.0406103,3.2829957 0 1 1 -8.081221,0 4.0406103,3.2829957 0 1 1 8.081221,0 z"
       transform="matrix(1.125,0,0,1.3076923,229.53492,472.38541)" />
    <path
       sodipodi:type="arc"
       style="fill:#6d6d6d;fill-opacity:1;fill-rule:nonzero;stroke:none"
       id="path13301-4"
       sodipodi:cx="47.982246"
       sodipodi:cy="61.140343"
       sodipodi:rx="4.0406103"
       sodipodi:ry="3.2829957"
       d="m 52.022857,61.140343 a 4.0406103,3.2829957 0 1 1 -8.081221,0 4.0406103,3.2829957 0 1 1 8.081221,0 z"
       transform="matrix(1.125,0,0,1.3076923,235.09075,450.66713)" />
    <path
       sodipodi:type="arc"
       style="fill:#6d6d6d;fill-opacity:1;fill-rule:nonzero;stroke:none"
       id="path13301-93"
       sodipodi:cx="47.982246"
       sodipodi:cy="61.140343"
       sodipodi:rx="4.0406103"
       sodipodi:ry="3.2829957"
       d="m 52.022857,61.140343 a 4.0406103,3.2829957 0 1 1 -8.081221,0 4.0406103,3.2829957 0 1 1 8.081221,0 z"
       transform="matrix(1.125,0,0,1.3076923,236.10091,461.27373)" />
    <path
       sodipodi:type="arc"
       style="fill:#6d6d6d;fill-opacity:1;fill-rule:nonzero;stroke:none"
       id="path13301-6"
       sodipodi:cx="47.982246"
       sodipodi:cy="61.140343"
       sodipodi:rx="4.0406103"
       sodipodi:ry="3.2829957"
       d="m 52.022857,61.140343 a 4.0406103,3.2829957 0 1 1 -8.081221,0 4.0406103,3.2829957 0 1 1 8.081221,0 z"
       transform="matrix(1.125,0,0,1.3076923,244.68721,453.19251)" />
    <path
       sodipodi:type="arc"
       style="fill:#6d6d6d;fill-opacity:1;fill-rule:nonzero;stroke:none"
       id="path13301-97"
       sodipodi:cx="47.982246"
       sodipodi:cy="61.140343"
       sodipodi:rx="4.0406103"
       sodipodi:ry="3.2829957"
       d="m 52.022857,61.140343 a 4.0406103,3.2829957 0 1 1 -8.081221,0 4.0406103,3.2829957 0 1 1 8.081221,0 z"
       transform="matrix(1.125,0,0,1.3076923,246.20244,463.79911)" />
    <path
       sodipodi:type="arc"
       style="fill:#6d6d6d;fill-opacity:1;fill-rule:nonzero;stroke:none"
       id="path13301-8"
       sodipodi:cx="47.982246"
       sodipodi:cy="61.140343"
       sodipodi:rx="4.0406103"
       sodipodi:ry="3.2829957"
       d="m 52.022857,61.140343 a 4.0406103,3.2829957 0 1 1 -8.081221,0 4.0406103,3.2829957 0 1 1 8.081221,0 z"
       transform="matrix(1.125,0,0,1.3076923,256.80904,458.24328)" />
    <path
       sodipodi:type="arc"
       style="fill:#6d6d6d;fill-opacity:1;fill-rule:nonzero;stroke:none"
       id="path13301-2"
       sodipodi:cx="47.982246"
       sodipodi:cy="61.140343"
       sodipodi:rx="4.0406103"
       sodipodi:ry="3.2829957"
       d="m 52.022857,61.140343 a 4.0406103,3.2829957 0 1 1 -8.081221,0 4.0406103,3.2829957 0 1 1 8.081221,0 z"
       transform="matrix(1.125,0,0,1.3076923,256.30396,468.3448)" />
    <path
       sodipodi:type="arc"
       style="fill:#6d6d6d;fill-opacity:1;fill-rule:nonzero;stroke:none"
       id="path13301-3"
       sodipodi:cx="47.982246"
       sodipodi:cy="61.140343"
       sodipodi:rx="4.0406103"
       sodipodi:ry="3.2829957"
       d="m 52.022857,61.140343 a 4.0406103,3.2829957 0 1 1 -8.081221,0 4.0406103,3.2829957 0 1 1 8.081221,0 z"
       transform="matrix(1.125,0,0,1.3076923,238.62629,369.34985)" />
    <path
       sodipodi:type="arc"
       style="fill:#6d6d6d;fill-opacity:1;fill-rule:nonzero;stroke:none"
       id="path13301-95"
       sodipodi:cx="47.982246"
       sodipodi:cy="61.140343"
       sodipodi:rx="4.0406103"
       sodipodi:ry="3.2829957"
       d="m 52.022857,61.140343 a 4.0406103,3.2829957 0 1 1 -8.081221,0 4.0406103,3.2829957 0 1 1 8.081221,0 z"
       transform="matrix(1.125,0,0,1.3076923,239.13137,360.76355)" />
    <path
       sodipodi:type="arc"
       style="fill:#6d6d6d;fill-opacity:1;fill-rule:nonzero;stroke:none"
       id="path13301-979"
       sodipodi:cx="47.982246"
       sodipodi:cy="61.140343"
       sodipodi:rx="4.0406103"
       sodipodi:ry="3.2829957"
       d="m 52.022857,61.140343 a 4.0406103,3.2829957 0 1 1 -8.081221,0 4.0406103,3.2829957 0 1 1 8.081221,0 z"
       transform="matrix(1.125,0,0,1.3076923,247.71766,361.77371)" />
    <path
       sodipodi:type="arc"
       style="fill:#6d6d6d;fill-opacity:1;fill-rule:nonzero;stroke:none"
       id="path13301-7"
       sodipodi:cx="47.982246"
       sodipodi:cy="61.140343"
       sodipodi:rx="4.0406103"
       sodipodi:ry="3.2829957"
       d="m 52.022857,61.140343 a 4.0406103,3.2829957 0 1 1 -8.081221,0 4.0406103,3.2829957 0 1 1 8.081221,0 z"
       transform="matrix(1.125,0,0,1.3076923,245.19228,368.3397)" />
    <path
       sodipodi:type="arc"
       style="fill:#6d6d6d;fill-opacity:1;fill-rule:nonzero;stroke:none"
       id="path13301-65"
       sodipodi:cx="47.982246"
       sodipodi:cy="61.140343"
       sodipodi:rx="4.0406103"
       sodipodi:ry="3.2829957"
       d="m 52.022857,61.140343 a 4.0406103,3.2829957 0 1 1 -8.081221,0 4.0406103,3.2829957 0 1 1 8.081221,0 z"
       transform="matrix(1.125,0,0,1.3076923,352.26845,366.82447)" />
    <path
       sodipodi:type="arc"
       style="fill:#6d6d6d;fill-opacity:1;fill-rule:nonzero;stroke:none"
       id="path13301-49"
       sodipodi:cx="47.982246"
       sodipodi:cy="61.140343"
       sodipodi:rx="4.0406103"
       sodipodi:ry="3.2829957"
       d="m 52.022857,61.140343 a 4.0406103,3.2829957 0 1 1 -8.081221,0 4.0406103,3.2829957 0 1 1 8.081221,0 z"
       transform="matrix(1.125,0,0,1.3076923,346.71262,374.40061)" />
    <path
       sodipodi:type="arc"
       style="fill:#6d6d6d;fill-opacity:1;fill-rule:nonzero;stroke:none"
       id="path13301-0"
       sodipodi:cx="47.982246"
       sodipodi:cy="61.140343"
       sodipodi:rx="4.0406103"
       sodipodi:ry="3.2829957"
       d="m 52.022857,61.140343 a 4.0406103,3.2829957 0 1 1 -8.081221,0 4.0406103,3.2829957 0 1 1 8.081221,0 z"
       transform="matrix(1.125,0,0,1.3076923,341.15678,379.45138)" />
    <path
       sodipodi:type="arc"
       style="fill:#6d6d6d;fill-opacity:1;fill-rule:nonzero;stroke:none"
       id="path13301-75"
       sodipodi:cx="47.982246"
       sodipodi:cy="61.140343"
       sodipodi:rx="4.0406103"
       sodipodi:ry="3.2829957"
       d="m 52.022857,61.140343 a 4.0406103,3.2829957 0 1 1 -8.081221,0 4.0406103,3.2829957 0 1 1 8.081221,0 z"
       transform="matrix(1.125,0,0,1.3076923,335.60094,386.01737)" />
    <path
       sodipodi:type="arc"
       style="fill:#6d6d6d;fill-opacity:1;fill-rule:nonzero;stroke:none"
       id="path13301-86"
       sodipodi:cx="47.982246"
       sodipodi:cy="61.140343"
       sodipodi:rx="4.0406103"
       sodipodi:ry="3.2829957"
       d="m 52.022857,61.140343 a 4.0406103,3.2829957 0 1 1 -8.081221,0 4.0406103,3.2829957 0 1 1 8.081221,0 z"
       transform="matrix(1.125,0,0,1.3076923,329.54002,389.04782)" />
    <path
       sodipodi:type="arc"
       style="fill:#6d6d6d;fill-opacity:1;fill-rule:nonzero;stroke:none"
       id="path13301-03"
       sodipodi:cx="47.982246"
       sodipodi:cy="61.140343"
       sodipodi:rx="4.0406103"
       sodipodi:ry="3.2829957"
       d="m 52.022857,61.140343 a 4.0406103,3.2829957 0 1 1 -8.081221,0 4.0406103,3.2829957 0 1 1 8.081221,0 z"
       transform="matrix(1.125,0,0,1.3076923,324.48926,388.54275)" />
    <path
       sodipodi:type="arc"
       style="fill:#6d6d6d;fill-opacity:1;fill-rule:nonzero;stroke:none"
       id="path13301-90"
       sodipodi:cx="47.982246"
       sodipodi:cy="61.140343"
       sodipodi:rx="4.0406103"
       sodipodi:ry="3.2829957"
       d="m 52.022857,61.140343 a 4.0406103,3.2829957 0 1 1 -8.081221,0 4.0406103,3.2829957 0 1 1 8.081221,0 z"
       transform="matrix(1.125,0,0,1.3076923,316.91311,377.43107)" />
    <path
       sodipodi:type="arc"
       style="fill:#6d6d6d;fill-opacity:1;fill-rule:nonzero;stroke:none"
       id="path13301-81"
       sodipodi:cx="47.982246"
       sodipodi:cy="61.140343"
       sodipodi:rx="4.0406103"
       sodipodi:ry="3.2829957"
       d="m 52.022857,61.140343 a 4.0406103,3.2829957 0 1 1 -8.081221,0 4.0406103,3.2829957 0 1 1 8.081221,0 z"
       transform="matrix(1.125,0,0,1.3076923,308.83189,370.36)" />
    <path
       sodipodi:type="arc"
       style="fill:#6d6d6d;fill-opacity:1;fill-rule:nonzero;stroke:none"
       id="path13301-92"
       sodipodi:cx="47.982246"
       sodipodi:cy="61.140343"
       sodipodi:rx="4.0406103"
       sodipodi:ry="3.2829957"
       d="m 52.022857,61.140343 a 4.0406103,3.2829957 0 1 1 -8.081221,0 4.0406103,3.2829957 0 1 1 8.081221,0 z"
       transform="matrix(1.125,0,0,1.3076923,306.30651,366.82446)" />
    <path
       sodipodi:type="arc"
       style="fill:#6d6d6d;fill-opacity:1;fill-rule:nonzero;stroke:none"
       id="path13301-05"
       sodipodi:cx="47.982246"
       sodipodi:cy="61.140343"
       sodipodi:rx="4.0406103"
       sodipodi:ry="3.2829957"
       d="m 52.022857,61.140343 a 4.0406103,3.2829957 0 1 1 -8.081221,0 4.0406103,3.2829957 0 1 1 8.081221,0 z"
       transform="matrix(1.125,0,0,1.3076923,301.25575,363.28894)" />
    <path
       sodipodi:type="arc"
       style="fill:#6d6d6d;fill-opacity:1;fill-rule:nonzero;stroke:none"
       id="path13301-1"
       sodipodi:cx="47.982246"
       sodipodi:cy="61.140343"
       sodipodi:rx="4.0406103"
       sodipodi:ry="3.2829957"
       d="m 52.022857,61.140343 a 4.0406103,3.2829957 0 1 1 -8.081221,0 4.0406103,3.2829957 0 1 1 8.081221,0 z"
       transform="matrix(1.125,0,0,1.3076923,295.19483,368.3397)" />
    <path
       sodipodi:type="arc"
       style="fill:#6d6d6d;fill-opacity:1;fill-rule:nonzero;stroke:none"
       id="path13301-22"
       sodipodi:cx="47.982246"
       sodipodi:cy="61.140343"
       sodipodi:rx="4.0406103"
       sodipodi:ry="3.2829957"
       d="m 52.022857,61.140343 a 4.0406103,3.2829957 0 1 1 -8.081221,0 4.0406103,3.2829957 0 1 1 8.081221,0 z"
       transform="matrix(1.125,0,0,1.3076923,299.74052,375.91584)" />
    <path
       sodipodi:type="arc"
       style="fill:#6d6d6d;fill-opacity:1;fill-rule:nonzero;stroke:none"
       id="path13301-16"
       sodipodi:cx="47.982246"
       sodipodi:cy="61.140343"
       sodipodi:rx="4.0406103"
       sodipodi:ry="3.2829957"
       d="m 52.022857,61.140343 a 4.0406103,3.2829957 0 1 1 -8.081221,0 4.0406103,3.2829957 0 1 1 8.081221,0 z"
       transform="matrix(1.125,0,0,1.3076923,306.81159,380.46153)" />
    <path
       sodipodi:type="arc"
       style="fill:#6d6d6d;fill-opacity:1;fill-rule:nonzero;stroke:none"
       id="path13301-73"
       sodipodi:cx="47.982246"
       sodipodi:cy="61.140343"
       sodipodi:rx="4.0406103"
       sodipodi:ry="3.2829957"
       d="m 52.022857,61.140343 a 4.0406103,3.2829957 0 1 1 -8.081221,0 4.0406103,3.2829957 0 1 1 8.081221,0 z"
       transform="matrix(1.125,0,0,1.3076923,319.94357,368.84478)" />
    <path
       sodipodi:type="arc"
       style="fill:#6d6d6d;fill-opacity:1;fill-rule:nonzero;stroke:none"
       id="path13301-17"
       sodipodi:cx="47.982246"
       sodipodi:cy="61.140343"
       sodipodi:rx="4.0406103"
       sodipodi:ry="3.2829957"
       d="m 52.022857,61.140343 a 4.0406103,3.2829957 0 1 1 -8.081221,0 4.0406103,3.2829957 0 1 1 8.081221,0 z"
       transform="matrix(1.125,0,0,1.3076923,366.41059,469.35495)" />
    <path
       sodipodi:type="arc"
       style="fill:#6d6d6d;fill-opacity:1;fill-rule:nonzero;stroke:none"
       id="path13301-02"
       sodipodi:cx="47.982246"
       sodipodi:cy="61.140343"
       sodipodi:rx="4.0406103"
       sodipodi:ry="3.2829957"
       d="m 52.022857,61.140343 a 4.0406103,3.2829957 0 1 1 -8.081221,0 4.0406103,3.2829957 0 1 1 8.081221,0 z"
       transform="matrix(1.125,0,0,1.3076923,358.83445,464.30419)" />
    <path
       sodipodi:type="arc"
       style="fill:#6d6d6d;fill-opacity:1;fill-rule:nonzero;stroke:none"
       id="path13301-68"
       sodipodi:cx="47.982246"
       sodipodi:cy="61.140343"
       sodipodi:rx="4.0406103"
       sodipodi:ry="3.2829957"
       d="m 52.022857,61.140343 a 4.0406103,3.2829957 0 1 1 -8.081221,0 4.0406103,3.2829957 0 1 1 8.081221,0 z"
       transform="matrix(1.125,0,0,1.3076923,353.78368,451.17221)" />
    <path
       sodipodi:type="arc"
       style="fill:#6d6d6d;fill-opacity:1;fill-rule:nonzero;stroke:none"
       id="path13301-817"
       sodipodi:cx="47.982246"
       sodipodi:cy="61.140343"
       sodipodi:rx="4.0406103"
       sodipodi:ry="3.2829957"
       d="m 52.022857,61.140343 a 4.0406103,3.2829957 0 1 1 -8.081221,0 4.0406103,3.2829957 0 1 1 8.081221,0 z"
       transform="matrix(1.125,0,0,1.3076923,350.24814,460.26358)" />
    <path
       sodipodi:type="arc"
       style="fill:#6d6d6d;fill-opacity:1;fill-rule:nonzero;stroke:none"
       id="path13301-80"
       sodipodi:cx="47.982246"
       sodipodi:cy="61.140343"
       sodipodi:rx="4.0406103"
       sodipodi:ry="3.2829957"
       d="m 52.022857,61.140343 a 4.0406103,3.2829957 0 1 1 -8.081221,0 4.0406103,3.2829957 0 1 1 8.081221,0 z"
       transform="matrix(1.125,0,0,1.3076923,340.14663,455.71789)" />
    <path
       sodipodi:type="arc"
       style="fill:#6d6d6d;fill-opacity:1;fill-rule:nonzero;stroke:none"
       id="path13301-36"
       sodipodi:cx="47.982246"
       sodipodi:cy="61.140343"
       sodipodi:rx="4.0406103"
       sodipodi:ry="3.2829957"
       d="m 52.022857,61.140343 a 4.0406103,3.2829957 0 1 1 -8.081221,0 4.0406103,3.2829957 0 1 1 8.081221,0 z"
       transform="matrix(1.125,0,0,1.3076923,337.11616,460.26358)" />
    <path
       sodipodi:type="arc"
       style="fill:#6d6d6d;fill-opacity:1;fill-rule:nonzero;stroke:none"
       id="path13301-83"
       sodipodi:cx="47.982246"
       sodipodi:cy="61.140343"
       sodipodi:rx="4.0406103"
       sodipodi:ry="3.2829957"
       d="m 52.022857,61.140343 a 4.0406103,3.2829957 0 1 1 -8.081221,0 4.0406103,3.2829957 0 1 1 8.081221,0 z"
       transform="matrix(1.125,0,0,1.0769231,335.09586,479.17111)" />
    <path
       sodipodi:type="arc"
       style="fill:#6d6d6d;fill-opacity:1;fill-rule:nonzero;stroke:none"
       id="path13301-976"
       sodipodi:cx="47.982246"
       sodipodi:cy="61.140343"
       sodipodi:rx="4.0406103"
       sodipodi:ry="3.2829957"
       d="m 52.022857,61.140343 a 4.0406103,3.2829957 0 1 1 -8.081221,0 4.0406103,3.2829957 0 1 1 8.081221,0 z"
       transform="matrix(1.125,0,0,1.3076923,313.37758,461.77881)" />
    <path
       sodipodi:type="arc"
       style="fill:#6d6d6d;fill-opacity:1;fill-rule:nonzero;stroke:none"
       id="path13301-91"
       sodipodi:cx="47.982246"
       sodipodi:cy="61.140343"
       sodipodi:rx="4.0406103"
       sodipodi:ry="3.2829957"
       d="m 52.022857,61.140343 a 4.0406103,3.2829957 0 1 1 -8.081221,0 4.0406103,3.2829957 0 1 1 8.081221,0 z"
       transform="matrix(1.125,0,0,1.3076923,321.96388,461.27374)" />
    <path
       sodipodi:type="arc"
       style="fill:#6d6d6d;fill-opacity:1;fill-rule:nonzero;stroke:none"
       id="path13301-5"
       sodipodi:cx="47.982246"
       sodipodi:cy="61.140343"
       sodipodi:rx="4.0406103"
       sodipodi:ry="3.2829957"
       d="m 52.022857,61.140343 a 4.0406103,3.2829957 0 1 1 -8.081221,0 4.0406103,3.2829957 0 1 1 8.081221,0 z"
       transform="matrix(1.125,0,0,1.3076923,328.52986,455.71789)" />
    <path
       sodipodi:type="arc"
       style="fill:#6d6d6d;fill-opacity:1;fill-rule:nonzero;stroke:none"
       id="path13301-23"
       sodipodi:cx="47.982246"
       sodipodi:cy="61.140343"
       sodipodi:rx="4.0406103"
       sodipodi:ry="3.2829957"
       d="m 52.022857,61.140343 a 4.0406103,3.2829957 0 1 1 -8.081221,0 4.0406103,3.2829957 0 1 1 8.081221,0 z"
       transform="matrix(1.125,0,0,1.3076923,304.28621,454.70774)" />
    <path
       sodipodi:type="arc"
       style="fill:#6d6d6d;fill-opacity:1;fill-rule:nonzero;stroke:none"
       id="path13301-25"
       sodipodi:cx="47.982246"
       sodipodi:cy="61.140343"
       sodipodi:rx="4.0406103"
       sodipodi:ry="3.2829957"
       d="m 52.022857,61.140343 a 4.0406103,3.2829957 0 1 1 -8.081221,0 4.0406103,3.2829957 0 1 1 8.081221,0 z"
       transform="matrix(1.125,0,0,1.3076923,307.82174,440.06053)" />
    <path
       sodipodi:type="arc"
       style="fill:#6d6d6d;fill-opacity:1;fill-rule:nonzero;stroke:none"
       id="path13301-756"
       sodipodi:cx="47.982246"
       sodipodi:cy="61.140343"
       sodipodi:rx="4.0406103"
       sodipodi:ry="3.2829957"
       d="m 52.022857,61.140343 a 4.0406103,3.2829957 0 1 1 -8.081221,0 4.0406103,3.2829957 0 1 1 8.081221,0 z"
       transform="matrix(1.125,0,0,1.3076923,304.79129,430.96916)" />
    <path
       sodipodi:type="arc"
       style="fill:#6d6d6d;fill-opacity:1;fill-rule:nonzero;stroke:none"
       id="path13301-34"
       sodipodi:cx="47.982246"
       sodipodi:cy="61.140343"
       sodipodi:rx="4.0406103"
       sodipodi:ry="3.2829957"
       d="m 52.022857,61.140343 a 4.0406103,3.2829957 0 1 1 -8.081221,0 4.0406103,3.2829957 0 1 1 8.081221,0 z"
       transform="matrix(1.125,0,0,1.3076923,296.71006,443.59606)" />
    <path
       sodipodi:type="arc"
       style="fill:#6d6d6d;fill-opacity:1;fill-rule:nonzero;stroke:none"
       id="path13301-973"
       sodipodi:cx="47.982246"
       sodipodi:cy="61.140343"
       sodipodi:rx="4.0406103"
       sodipodi:ry="3.2829957"
       d="m 52.022857,61.140343 a 4.0406103,3.2829957 0 1 1 -8.081221,0 4.0406103,3.2829957 0 1 1 8.081221,0 z"
       transform="matrix(1.125,0,0,1.3076923,283.073,448.64682)" />
    <path
       sodipodi:type="arc"
       style="fill:#6d6d6d;fill-opacity:1;fill-rule:nonzero;stroke:none"
       id="path13301-19"
       sodipodi:cx="47.982246"
       sodipodi:cy="61.140343"
       sodipodi:rx="4.0406103"
       sodipodi:ry="3.2829957"
       d="m 52.022857,61.140343 a 4.0406103,3.2829957 0 1 1 -8.081221,0 4.0406103,3.2829957 0 1 1 8.081221,0 z"
       transform="matrix(1.125,0,0,1.3076923,272.97148,454.70774)" />
    <path
       sodipodi:type="arc"
       style="fill:#6d6d6d;fill-opacity:1;fill-rule:nonzero;stroke:none"
       id="path13301-09"
       sodipodi:cx="47.982246"
       sodipodi:cy="61.140343"
       sodipodi:rx="4.0406103"
       sodipodi:ry="3.2829957"
       d="m 52.022857,61.140343 a 4.0406103,3.2829957 0 1 1 -8.081221,0 4.0406103,3.2829957 0 1 1 8.081221,0 z"
       transform="matrix(1.125,0,0,1.3076923,271.45625,461.27373)" />
    <path
       sodipodi:type="arc"
       style="fill:#6d6d6d;fill-opacity:1;fill-rule:nonzero;stroke:none"
       id="path13301-71"
       sodipodi:cx="47.982246"
       sodipodi:cy="61.140343"
       sodipodi:rx="4.0406103"
       sodipodi:ry="3.2829957"
       d="m 52.022857,61.140343 a 4.0406103,3.2829957 0 1 1 -8.081221,0 4.0406103,3.2829957 0 1 1 8.081221,0 z"
       transform="matrix(1.125,0,0,1.3076923,267.92071,462.28388)" />
  </g>
</svg>
